<svg width="158" height="60" viewBox="0 0 158 60" fill="none" xmlns="http://www.w3.org/2000/svg">
<g id="&#233;&#186;&#166;&#231;&#169;&#151;-&#229;&#183;&#166; 1" clip-path="url(#clip0_39_13213)">
<path id="Union" fill-rule="evenodd" clip-rule="evenodd" d="M148.637 53.0341C149.204 51.5733 147.386 49.5606 143.451 49.318V49.3132C139.521 49.0658 135.386 49.3132 129.472 51.2783C125.069 52.7789 120.969 55.0506 117.362 57.9873C115.811 59.3148 118.818 59.6764 121.359 59.6764C121.849 59.6764 122.493 59.693 123.26 59.7128C126.477 59.7957 131.873 59.9349 137.313 59.1435C144.055 58.1633 148.067 54.4948 148.637 53.0341ZM150.336 41.1625C155.427 37.8699 157.193 33.5305 157.459 31.8271V31.8318C157.726 30.1332 154.899 29.9429 152.411 30.4663C152.261 30.4978 152.11 30.529 151.956 30.5607C149.562 31.0549 146.645 31.6572 141.396 35.1673C135.81 38.9024 131.946 44.2173 130.804 46.3584C129.811 48.2204 132.29 47.6679 135.354 46.9853C135.813 46.883 136.285 46.7777 136.761 46.6772C141.676 45.6685 146.292 43.789 150.336 41.1625ZM157.112 17.743C157.659 16.1157 157.797 14.222 155.746 14.222V14.2268C153.695 14.2268 150.388 15.3069 145.84 19.8223C142.804 22.8295 140.825 26.9643 139.902 32.222C144.041 30.7851 147.462 29.0864 150.165 27.1308C154.214 24.1903 156.56 19.3608 157.112 17.743ZM148.419 0.685129C147.871 0.310781 147.209 0.140694 146.549 0.204558C145.996 0.249661 145.47 0.462099 145.04 0.813598C143.042 2.48846 141.738 4.36316 141.139 6.43771C139.787 11.1054 139.787 12.9516 139.997 14.9976C140.135 16.3584 140.52 18.0618 141.139 20.1173C144.279 17.8715 146.639 14.812 148.209 10.9579C149.242 8.40757 149.66 5.70495 149.432 3.01185L149.346 2.17442C149.305 1.87482 149.202 1.58727 149.042 1.33061C148.882 1.07395 148.669 0.853984 148.419 0.685129ZM14.3399 49.318C10.4049 49.5606 8.58731 51.5733 9.15353 53.0341C9.7245 54.4948 13.7356 58.1633 20.4779 59.1435C25.9179 59.9349 31.3144 59.7957 34.5311 59.7128L34.5314 59.7128C35.2985 59.693 35.9417 59.6764 36.4319 59.6764C38.9727 59.6764 41.9799 59.3148 40.4287 57.9873C36.822 55.0506 32.7216 52.7789 28.3193 51.2783C22.4049 49.3132 18.2701 49.0658 14.3399 49.3132V49.318ZM0.331955 31.8271C0.59841 33.5305 2.36368 37.8699 7.45487 41.1625C11.4993 43.789 16.1147 45.6685 21.0298 46.6772C21.5056 46.7777 21.978 46.883 22.4373 46.9853C25.5008 47.6679 27.9801 48.2204 26.987 46.3584C25.845 44.2173 21.9814 38.9024 16.3954 35.1673C11.146 31.6572 8.22862 31.0549 5.83484 30.5607L5.83482 30.5607C5.68133 30.529 5.52999 30.4978 5.38033 30.4663C2.89183 29.9429 0.0654995 30.1332 0.331955 31.8318V31.8271ZM2.04488 14.222C-0.00587177 14.222 0.132113 16.1157 0.679298 17.743C1.23124 19.3608 3.577 24.1903 7.62617 27.1308C10.3288 29.0864 13.7499 30.7851 17.8895 32.222C16.9664 26.9643 14.987 22.8295 11.9513 19.8223C7.40253 15.3069 4.09564 14.2268 2.04488 14.2268V14.222ZM11.2423 0.204558C10.582 0.140694 9.92015 0.310781 9.3724 0.685129C9.12154 0.853984 8.90921 1.07395 8.74931 1.33061C8.58941 1.58727 8.48556 1.87482 8.44456 2.17442L8.35892 3.01185C8.13053 5.70495 8.54924 8.40757 9.58176 10.9579C11.1519 14.812 13.512 17.8715 16.6523 20.1173C17.2709 18.0618 17.6563 16.3584 17.7943 14.9976C18.0036 12.9516 18.0036 11.1054 16.6523 6.43771C16.0528 4.36316 14.7491 2.48846 12.7507 0.813598C12.3214 0.462099 11.7953 0.249661 11.2423 0.204558ZM86.2334 3.9873V53H74.0029V26.7227C74.0029 22.9284 73.9121 20.6478 73.7305 19.8809C73.5488 19.1139 73.0443 18.5387 72.2168 18.1553C71.4095 17.7516 69.5931 17.5498 66.7676 17.5498H65.5566V11.8281C71.4701 10.5566 75.9606 7.94303 79.0283 3.9873H86.2334Z" fill="url(#paint0_linear_39_13213)"/>
</g>
<defs>
<linearGradient id="paint0_linear_39_13213" x1="19.227" y1="-8.92514" x2="186.114" y2="87.358" gradientUnits="userSpaceOnUse">
<stop stop-color="#FFE4AB"/>
<stop offset="0.336057" stop-color="#FFFAC7"/>
<stop offset="0.658671" stop-color="#FFE9A5"/>
<stop offset="1" stop-color="#FFDA7B"/>
</linearGradient>
<clipPath id="clip0_39_13213">
<rect width="158" height="60" fill="white"/>
</clipPath>
</defs>
</svg>
