<svg width="158" height="60" viewBox="0 0 158 60" fill="none" xmlns="http://www.w3.org/2000/svg">
<g id="&#233;&#186;&#166;&#231;&#169;&#151;-&#229;&#183;&#166; 1" clip-path="url(#clip0_39_13230)">
<path id="Union" fill-rule="evenodd" clip-rule="evenodd" d="M148.637 53.0341C149.204 51.5733 147.386 49.5606 143.451 49.318V49.3132C139.521 49.0658 135.386 49.3132 129.472 51.2783C125.069 52.7789 120.969 55.0506 117.362 57.9873C115.811 59.3148 118.818 59.6764 121.359 59.6764C121.849 59.6764 122.493 59.693 123.26 59.7128C126.477 59.7957 131.873 59.9349 137.313 59.1435C144.055 58.1633 148.067 54.4948 148.637 53.0341ZM150.336 41.1625C155.427 37.8699 157.193 33.5305 157.459 31.8271V31.8318C157.726 30.1332 154.899 29.9429 152.411 30.4663C152.261 30.4978 152.11 30.529 151.956 30.5607C149.562 31.0549 146.645 31.6572 141.396 35.1673C135.81 38.9024 131.946 44.2173 130.804 46.3584C129.811 48.2204 132.29 47.6679 135.354 46.9853C135.813 46.883 136.285 46.7777 136.761 46.6772C141.676 45.6685 146.292 43.789 150.336 41.1625ZM157.112 17.743C157.659 16.1157 157.797 14.222 155.746 14.222V14.2268C153.695 14.2268 150.388 15.3069 145.84 19.8223C142.804 22.8295 140.825 26.9643 139.902 32.222C144.041 30.7851 147.462 29.0864 150.165 27.1308C154.214 24.1903 156.56 19.3608 157.112 17.743ZM148.419 0.685129C147.871 0.310781 147.209 0.140694 146.549 0.204558C145.996 0.249661 145.47 0.462099 145.04 0.813598C143.042 2.48846 141.738 4.36316 141.139 6.43771C139.787 11.1054 139.787 12.9516 139.997 14.9976C140.135 16.3584 140.52 18.0618 141.139 20.1173C144.279 17.8715 146.639 14.812 148.209 10.9579C149.242 8.40757 149.66 5.70495 149.432 3.01185L149.346 2.17442C149.305 1.87482 149.202 1.58727 149.042 1.33061C148.882 1.07395 148.669 0.853984 148.419 0.685129ZM9.15353 53.0341C8.58731 51.5733 10.4049 49.5606 14.3399 49.318V49.3132C18.2701 49.0658 22.4049 49.3132 28.3193 51.2783C32.7216 52.7789 36.822 55.0506 40.4287 57.9873C41.9799 59.3148 38.9727 59.6764 36.4319 59.6764C35.9421 59.6764 35.2996 59.693 34.5333 59.7127L34.5314 59.7128L34.5311 59.7128C31.3144 59.7957 25.9179 59.9349 20.4779 59.1435C13.7356 58.1633 9.7245 54.4948 9.15353 53.0341ZM7.45487 41.1625C2.36368 37.8699 0.59841 33.5305 0.331955 31.8271V31.8318C0.0654995 30.1332 2.89183 29.9429 5.38033 30.4663C5.52998 30.4978 5.68132 30.529 5.8348 30.5607L5.83482 30.5607L5.83484 30.5607C8.22862 31.0549 11.146 31.6572 16.3954 35.1673C21.9814 38.9024 25.845 44.2173 26.987 46.3584C27.9801 48.2204 25.5008 47.6679 22.4373 46.9853C21.978 46.883 21.5056 46.7777 21.0298 46.6772C16.1147 45.6685 11.4993 43.789 7.45487 41.1625ZM0.679298 17.743C0.132113 16.1157 -0.00587177 14.222 2.04488 14.222V14.2268C4.09564 14.2268 7.40253 15.3069 11.9513 19.8223C14.987 22.8295 16.9664 26.9643 17.8895 32.222C13.7499 30.7851 10.3288 29.0864 7.62617 27.1308C3.577 24.1903 1.23124 19.3608 0.679298 17.743ZM9.3724 0.685129C9.92015 0.310781 10.582 0.140694 11.2423 0.204558C11.7953 0.249661 12.3214 0.462099 12.7507 0.813598C14.7491 2.48846 16.0528 4.36316 16.6523 6.43771C18.0036 11.1054 18.0036 12.9516 17.7943 14.9976C17.6563 16.3584 17.2709 18.0618 16.6523 20.1173C13.512 17.8715 11.1519 14.812 9.58176 10.9579C8.54924 8.40757 8.13053 5.70495 8.35892 3.01185L8.44456 2.17442C8.48556 1.87482 8.58941 1.58727 8.74931 1.33061C8.90921 1.07395 9.12154 0.853984 9.3724 0.685129ZM100.763 52H112L97.2688 36.1792L110.226 22.0097H99.0968L90.2796 31.5981V8H82V52H90.2796V43.7966L91.6774 42.3051L100.763 52ZM59.5482 52H50.2771L65.4036 17.959H48V10H75V17.0986L59.5482 52Z" fill="url(#paint0_linear_39_13230)"/>
</g>
<defs>
<linearGradient id="paint0_linear_39_13230" x1="19.227" y1="-8.92514" x2="186.114" y2="87.358" gradientUnits="userSpaceOnUse">
<stop stop-color="#DFDFDF"/>
<stop offset="0.336057" stop-color="white"/>
<stop offset="0.658671" stop-color="#CACACA"/>
<stop offset="1" stop-color="#828282"/>
</linearGradient>
<clipPath id="clip0_39_13230">
<rect width="158" height="60" fill="white"/>
</clipPath>
</defs>
</svg>
