<svg width="105" height="33" viewBox="0 0 105 33" fill="none" xmlns="http://www.w3.org/2000/svg">
<path d="M2.57296 24.9892C2.50213 24.9491 2.43642 24.897 2.3801 24.8322C0.881617 23.1356 0.641825 20.6889 1.78275 18.7448L9.82388 5.04259C10.0329 4.68672 10.4955 4.56469 10.8573 4.77036C11.2191 4.97603 11.3428 5.43089 11.1346 5.78761L3.0935 19.4899C2.27514 20.8843 2.44751 22.6389 3.52274 23.8559C3.79666 24.1665 3.76338 24.6367 3.44764 24.9064C3.19761 25.1206 2.84432 25.1437 2.57296 24.9892ZM0.941351 17.6943L9.18557 3.64557C9.474 3.15401 9.85545 2.7367 10.3188 2.40558C10.5441 2.24428 10.5945 1.9345 10.4306 1.71261C10.2668 1.49073 9.95102 1.44208 9.72574 1.60252C9.14717 2.01557 8.671 2.53615 8.31174 3.14889L0.0675204 17.1976C-0.0715757 17.4349 0.0111993 17.7387 0.251844 17.8752C0.492489 18.0118 0.801402 17.9307 0.941351 17.6934V17.6943ZM13.2049 23.8695L16.1839 18.7926C16.5321 18.1995 16.3256 17.44 15.7222 17.0978C15.1189 16.7547 14.3475 16.9587 13.9993 17.5518L11.0203 22.6287C10.463 23.5777 9.22482 23.9045 8.26054 23.3566C7.2954 22.8087 6.96344 21.5901 7.52068 20.6411L14.0787 9.46664C14.4268 8.87352 14.2203 8.11399 13.617 7.77178C13.0137 7.42871 12.2423 7.63267 11.8941 8.22579L5.33611 19.4003C4.08339 21.5346 4.82922 24.2732 6.99929 25.5055C9.1685 26.7378 11.953 26.0039 13.2049 23.8695ZM28.5524 8.34356C28.2366 8.61323 28.2033 9.08346 28.4773 9.3941C29.5525 10.6111 29.7249 12.3656 28.9065 13.7601L20.8654 27.4624C20.6563 27.8182 20.78 28.2739 21.1427 28.4796C21.5045 28.6853 21.9671 28.5632 22.1761 28.2074L30.2172 14.5051C31.3582 12.5602 31.1184 10.1144 29.6199 8.4178C29.5636 8.3538 29.4979 8.30174 29.427 8.26078C29.1548 8.10631 28.8024 8.13021 28.5524 8.34356ZM31.0586 15.5557L22.8144 29.6044C22.526 30.096 22.1445 30.5133 21.6812 30.8444C21.4559 31.0057 21.4055 31.3155 21.5694 31.5374C21.7332 31.7592 22.049 31.8079 22.2743 31.6474C22.8528 31.2344 23.329 30.7138 23.6883 30.1011L31.9325 16.0524C32.0716 15.8151 31.9888 15.5113 31.7482 15.3747C31.5067 15.2374 31.1986 15.3193 31.0586 15.5565V15.5557ZM18.7951 9.38044L15.8161 14.4573C15.4679 15.0505 15.6744 15.81 16.2778 16.1522C16.8811 16.4953 17.6525 16.2913 18.0007 15.6982L20.9797 10.6213C21.537 9.67231 22.7752 9.34545 23.7395 9.89334C24.7046 10.4412 25.0366 11.6599 24.4793 12.6089L17.9213 23.7833C17.5731 24.3764 17.7797 25.136 18.383 25.4782C18.9863 25.8213 19.7577 25.6173 20.1059 25.0242L26.6639 13.8497C27.9166 11.7154 27.1708 8.97678 25.0007 7.74447C22.8315 6.51215 20.047 7.24608 18.7951 9.38044Z" fill="white"/>
<path d="M91.9639 24.6049C88.8626 24.6049 86.3392 21.9538 86.3392 18.6955C86.3392 15.4372 88.8626 12.7861 91.9639 12.7861C94.6032 12.7861 96.8575 14.6709 97.4459 17.3688C97.5407 17.7981 97.5887 18.2439 97.5887 18.6943C97.5887 18.7084 97.5887 18.7212 97.5887 18.7353C97.5863 19.0488 97.3278 19.3004 97.0131 19.3004H88.8205C88.7012 19.3004 88.5889 19.3553 88.5175 19.4489C88.445 19.5425 88.4216 19.6642 88.4532 19.7777C88.9188 21.4367 90.3086 22.5961 91.9979 22.5961C92.9197 22.5961 93.81 22.2544 94.5026 21.6332C94.6219 21.5279 94.7354 21.4121 94.8418 21.2904C94.9272 21.1921 95.0536 21.1372 95.1834 21.1372H96.5475C96.9148 21.1372 97.1347 21.5466 96.9312 21.8532C96.2655 22.8511 95.2279 23.6748 94.0954 24.1626C93.4204 24.4551 92.7033 24.6025 91.9639 24.6025V24.6049ZM91.9979 14.6955C90.504 14.6955 89.1551 15.6326 88.562 17.0833C88.514 17.2015 88.5257 17.336 88.5959 17.4425C88.6649 17.549 88.7819 17.6133 88.9071 17.6133H95.0898C95.215 17.6133 95.332 17.549 95.401 17.4425C95.47 17.336 95.4829 17.2003 95.4349 17.0833C94.8406 15.6326 93.4918 14.6955 91.9979 14.6955Z" fill="white"/>
<path d="M65.4805 23.9006V17.824C65.4805 16.4283 64.3973 15.2384 63.0028 15.1858C61.5369 15.1308 60.3261 16.3066 60.3261 17.7608V23.9018C60.3261 24.1557 60.1202 24.3616 59.8664 24.3616H58.397C58.1432 24.3616 57.9373 24.1557 57.9373 23.9018V17.7608C57.9373 17.0495 58.0847 16.3616 58.376 15.7158C59.1785 13.941 60.9555 12.7944 62.9022 12.7944C64.8488 12.7944 66.6258 13.941 67.4284 15.7158C67.7197 16.3616 67.8671 17.0495 67.8671 17.7608V23.9018C67.8671 24.1557 67.6612 24.3616 67.4073 24.3616H65.938C65.6841 24.3616 65.4782 24.1557 65.4782 23.9018L65.4805 23.9006Z" fill="white"/>
<path d="M79.6977 24.6447C77.6154 24.6447 76.2384 23.1577 75.6032 20.227C75.2932 18.7961 74.5889 15.3647 74.2379 13.6543C74.1795 13.3688 74.397 13.1032 74.6883 13.1032H76.1004C76.3238 13.1032 76.5157 13.2635 76.5531 13.4846C76.8245 15.0617 77.4855 18.8897 77.7546 20.3744C77.9803 21.6227 78.6343 22.2556 79.6965 22.2556C81.015 22.2556 81.3601 21.2495 81.5133 20.372C81.7836 18.8324 82.5218 15.0278 82.8259 13.4741C82.868 13.2577 83.0576 13.1021 83.2775 13.1021H84.7024C84.9937 13.1021 85.2113 13.37 85.1528 13.6554L83.7899 20.2293C83.6086 21.2741 82.7826 24.6435 79.6965 24.6435L79.6977 24.6447Z" fill="white"/>
<path d="M49.9031 24.6109C49.8411 24.6109 49.7791 24.6109 49.7183 24.6074C49.1065 24.5887 48.5087 24.4775 47.9378 24.2751C47.595 24.1534 47.2639 24.0013 46.9551 23.8212C46.0555 23.3029 45.3079 22.5553 44.7908 21.6568C44.6107 21.3444 44.4574 21.0133 44.3369 20.6717C44.1135 20.0423 44 19.3801 44 18.7015V9.06476C44 8.81089 44.2059 8.60498 44.4598 8.60498H45.9291C46.183 8.60498 46.3889 8.81089 46.3889 9.06476V18.6267C46.3889 20.5418 47.8875 22.1634 49.8025 22.2207C51.7925 22.2792 53.4291 20.6787 53.4291 18.7015V9.06476C53.4291 8.81089 53.635 8.60498 53.8889 8.60498H55.3582C55.6121 8.60498 55.818 8.81089 55.818 9.06476V18.7015C55.818 19.3754 55.7045 20.0388 55.4811 20.6717C55.3606 21.0133 55.2073 21.3444 55.0272 21.6545C54.5089 22.553 53.7614 23.3006 52.8641 23.8177C52.5541 23.999 52.223 24.1523 51.879 24.2739C51.3093 24.4763 50.7115 24.5875 50.1032 24.6062C50.0377 24.6085 49.9745 24.6097 49.9102 24.6097H49.9055L49.9031 24.6109Z" fill="white"/>
<path d="M99.8517 24.36C99.5979 24.36 99.392 24.1541 99.392 23.9002V17.1205C99.392 16.6291 99.4727 16.1471 99.633 15.6885C99.6353 15.6838 99.6365 15.6791 99.6376 15.6744C100.07 14.4507 101.059 13.4621 102.283 13.0292C102.285 13.0292 102.287 13.028 102.29 13.0268C102.732 12.8712 103.195 12.7905 103.665 12.7847H104.47C104.724 12.7847 104.93 12.9906 104.93 13.2445V14.7151C104.93 14.9678 104.725 15.1737 104.473 15.1749L103.737 15.1784C103.711 15.1784 103.685 15.1807 103.661 15.1866C103.464 15.1936 103.272 15.231 103.089 15.2965C102.539 15.4896 102.094 15.9341 101.9 16.4852C101.835 16.67 101.798 16.8607 101.79 17.0538C101.784 17.0795 101.781 17.1076 101.781 17.1357V23.9026C101.781 24.1565 101.575 24.3624 101.321 24.3624H99.8517V24.36Z" fill="white"/>
<path d="M70.007 15.6998V23.901C70.007 24.1549 70.2129 24.3608 70.4667 24.3608H71.9337C72.1876 24.3608 72.3935 24.1549 72.3935 23.901V15.6974C72.3935 15.5828 72.2835 15.5009 72.1735 15.5325C71.8635 15.6226 71.5348 15.6705 71.1955 15.6705C70.8563 15.6705 70.5346 15.6226 70.2269 15.5348C70.1169 15.5032 70.007 15.5851 70.007 15.6998Z" fill="white"/>
<path d="M70.007 13.5629V14.8907C70.007 15.1025 70.152 15.2874 70.3579 15.3388C70.627 15.4043 70.9066 15.4406 71.1955 15.4406C71.4845 15.4406 71.7723 15.4043 72.0437 15.3365C72.2496 15.285 72.3935 15.1013 72.3935 14.8896V13.564C72.3935 13.3102 72.1876 13.1042 71.9337 13.1042H70.4667C70.2129 13.1042 70.007 13.3102 70.007 13.5629Z" fill="white"/>
</svg>

