<svg width="320" height="296" viewBox="0 0 320 296" fill="none" xmlns="http://www.w3.org/2000/svg">
<rect width="320" height="296" rx="10" fill="#F4F5F8"/>
<circle cx="159.968" cy="147.923" r="55.9799" fill="#F8F7FD" stroke="url(#paint0_linear_6273_20336)" stroke-width="1.3" stroke-linecap="round" stroke-dasharray="1 8"/>
<circle cx="159.969" cy="147.925" r="75.1176" transform="rotate(-15 159.969 147.925)" stroke="url(#paint1_linear_6273_20336)" stroke-opacity="0.4" stroke-width="1.3" stroke-linecap="round" stroke-dasharray="1 8"/>
<g filter="url(#filter0_d_6273_20336)">
<circle cx="159.997" cy="147.994" r="39.5152" fill="url(#paint2_radial_6273_20336)" fill-opacity="0.8" shape-rendering="crispEdges"/>
<circle cx="159.997" cy="147.994" r="39.5152" fill="url(#paint3_linear_6273_20336)" fill-opacity="0.2" shape-rendering="crispEdges"/>
<circle cx="159.997" cy="147.994" r="39.5152" fill="url(#paint4_linear_6273_20336)" fill-opacity="0.4" shape-rendering="crispEdges"/>
<circle cx="159.997" cy="147.994" r="39.5152" fill="url(#paint5_linear_6273_20336)" fill-opacity="0.4" shape-rendering="crispEdges"/>
<circle cx="159.997" cy="147.994" r="39.0152" stroke="url(#paint6_radial_6273_20336)" shape-rendering="crispEdges"/>
</g>
<g opacity="0.14" filter="url(#filter1_f_6273_20336)">
<path d="M140.109 160.498C140.004 160.439 139.906 160.362 139.823 160.265C137.6 157.749 137.245 154.121 138.937 151.237L150.863 130.916C151.173 130.388 151.859 130.207 152.395 130.512C152.932 130.817 153.115 131.492 152.807 132.021L140.881 152.342C139.667 154.41 139.923 157.013 141.517 158.817C141.924 159.278 141.874 159.975 141.406 160.375C141.035 160.693 140.511 160.727 140.109 160.498ZM137.689 149.679L149.916 128.844C150.344 128.115 150.909 127.496 151.597 127.005C151.931 126.766 152.005 126.306 151.762 125.977C151.519 125.648 151.051 125.576 150.717 125.814C149.859 126.427 149.153 127.199 148.62 128.107L136.393 148.943C136.187 149.295 136.31 149.745 136.666 149.948C137.023 150.15 137.482 150.03 137.689 149.678V149.679ZM155.877 158.838L160.295 151.308C160.811 150.429 160.505 149.302 159.61 148.795C158.716 148.286 157.571 148.588 157.055 149.468L152.637 156.997C151.81 158.405 149.974 158.89 148.544 158.077C147.113 157.264 146.62 155.457 147.447 154.05L157.173 137.477C157.689 136.597 157.383 135.471 156.488 134.963C155.593 134.455 154.449 134.757 153.933 135.637L144.207 152.209C142.349 155.375 143.455 159.436 146.673 161.264C149.891 163.092 154.02 162.003 155.877 158.838ZM178.638 135.811C178.17 136.211 178.121 136.909 178.527 137.369C180.122 139.174 180.377 141.776 179.164 143.845L167.238 164.166C166.928 164.694 167.111 165.37 167.649 165.675C168.186 165.98 168.872 165.799 169.182 165.271L181.108 144.95C182.8 142.065 182.444 138.438 180.222 135.922C180.138 135.827 180.041 135.749 179.936 135.689C179.532 135.46 179.009 135.495 178.638 135.811ZM182.355 146.508L170.129 167.343C169.701 168.072 169.135 168.691 168.448 169.182C168.114 169.421 168.039 169.881 168.282 170.21C168.525 170.539 168.993 170.611 169.327 170.373C170.186 169.76 170.892 168.988 171.425 168.08L183.651 147.244C183.858 146.892 183.735 146.442 183.378 146.239C183.02 146.035 182.563 146.157 182.355 146.509V146.508ZM164.168 137.349L159.75 144.879C159.233 145.758 159.539 146.885 160.434 147.392C161.329 147.901 162.473 147.599 162.989 146.719L167.408 139.189C168.234 137.782 170.07 137.297 171.5 138.11C172.932 138.922 173.424 140.73 172.598 142.137L162.872 158.71C162.355 159.589 162.662 160.716 163.556 161.223C164.451 161.732 165.595 161.43 166.112 160.55L175.838 143.977C177.696 140.812 176.589 136.751 173.371 134.923C170.154 133.095 166.024 134.184 164.168 137.349Z" fill="url(#paint7_linear_6273_20336)"/>
</g>
<path d="M140.109 160.498C140.004 160.439 139.906 160.362 139.823 160.265C137.6 157.749 137.245 154.121 138.937 151.237L150.863 130.916C151.173 130.388 151.859 130.207 152.395 130.512C152.932 130.817 153.115 131.492 152.807 132.021L140.881 152.342C139.667 154.41 139.923 157.013 141.517 158.817C141.924 159.278 141.874 159.975 141.406 160.375C141.035 160.693 140.511 160.727 140.109 160.498ZM137.689 149.679L149.916 128.844C150.344 128.115 150.909 127.496 151.597 127.005C151.931 126.766 152.005 126.306 151.762 125.977C151.519 125.648 151.051 125.576 150.717 125.814C149.859 126.427 149.153 127.199 148.62 128.107L136.393 148.943C136.187 149.295 136.31 149.745 136.666 149.948C137.023 150.15 137.482 150.03 137.689 149.678V149.679ZM155.877 158.838L160.295 151.308C160.811 150.429 160.505 149.302 159.61 148.795C158.716 148.286 157.571 148.588 157.055 149.468L152.637 156.997C151.81 158.405 149.974 158.89 148.544 158.077C147.113 157.264 146.62 155.457 147.447 154.05L157.173 137.477C157.689 136.597 157.383 135.471 156.488 134.963C155.593 134.455 154.449 134.757 153.933 135.637L144.207 152.209C142.349 155.375 143.455 159.436 146.673 161.264C149.891 163.092 154.02 162.003 155.877 158.838ZM178.638 135.811C178.17 136.211 178.121 136.909 178.527 137.369C180.122 139.174 180.377 141.776 179.164 143.845L167.238 164.166C166.928 164.694 167.111 165.37 167.649 165.675C168.186 165.98 168.872 165.799 169.182 165.271L181.108 144.95C182.8 142.065 182.444 138.438 180.222 135.922C180.138 135.827 180.041 135.749 179.936 135.689C179.532 135.46 179.009 135.495 178.638 135.811ZM182.355 146.508L170.129 167.343C169.701 168.072 169.135 168.691 168.448 169.182C168.114 169.421 168.039 169.881 168.282 170.21C168.525 170.539 168.993 170.611 169.327 170.373C170.186 169.76 170.892 168.988 171.425 168.08L183.651 147.244C183.858 146.892 183.735 146.442 183.378 146.239C183.02 146.035 182.563 146.157 182.355 146.509V146.508ZM164.168 137.349L159.75 144.879C159.233 145.758 159.539 146.885 160.434 147.392C161.329 147.901 162.473 147.599 162.989 146.719L167.408 139.189C168.234 137.782 170.07 137.297 171.5 138.11C172.932 138.922 173.424 140.73 172.598 142.137L162.872 158.71C162.355 159.589 162.662 160.716 163.556 161.223C164.451 161.732 165.595 161.43 166.112 160.55L175.838 143.977C177.696 140.812 176.589 136.751 173.371 134.923C170.154 133.095 166.024 134.184 164.168 137.349Z" fill="url(#paint8_linear_6273_20336)"/>
<g filter="url(#filter2_d_6273_20336)">
<path d="M201.922 208.922C201.922 198.428 210.428 189.922 220.922 189.922C231.415 189.922 239.922 198.428 239.922 208.922C239.922 219.415 231.415 227.922 220.922 227.922C210.428 227.922 201.922 219.415 201.922 208.922Z" fill="white" fill-opacity="0.9"/>
<path fill-rule="evenodd" clip-rule="evenodd" d="M213.798 201.117C213.798 200.27 214.484 199.584 215.331 199.584H226.517C227.364 199.584 228.05 200.27 228.05 201.117V216.728C228.05 217.575 227.364 218.261 226.517 218.261H215.331C214.484 218.261 213.798 217.575 213.798 216.728V201.117ZM215.446 201.97C215.446 201.547 215.79 201.204 216.213 201.204H225.635C226.059 201.204 226.402 201.547 226.402 201.97V204.946C226.402 205.369 226.059 205.712 225.635 205.712H216.213C215.79 205.712 215.446 205.369 215.446 204.946V201.97ZM216.596 209.535C217.231 209.535 217.746 209.021 217.746 208.386C217.746 207.751 217.231 207.236 216.596 207.236C215.961 207.236 215.446 207.751 215.446 208.386C215.446 209.021 215.961 209.535 216.596 209.535ZM222.074 208.386C222.074 209.021 221.559 209.535 220.924 209.535C220.289 209.535 219.774 209.021 219.774 208.386C219.774 207.751 220.289 207.236 220.924 207.236C221.559 207.236 222.074 207.751 222.074 208.386ZM225.252 209.535C225.887 209.535 226.402 209.021 226.402 208.386C226.402 207.751 225.887 207.236 225.252 207.236C224.617 207.236 224.102 207.751 224.102 208.386C224.102 209.021 224.617 209.535 225.252 209.535ZM217.746 211.943C217.746 212.578 217.231 213.093 216.596 213.093C215.961 213.093 215.446 212.578 215.446 211.943C215.446 211.308 215.961 210.794 216.596 210.794C217.231 210.794 217.746 211.308 217.746 211.943ZM220.924 213.093C221.559 213.093 222.074 212.578 222.074 211.943C222.074 211.308 221.559 210.794 220.924 210.794C220.289 210.794 219.774 211.308 219.774 211.943C219.774 212.578 220.289 213.093 220.924 213.093ZM226.402 211.943C226.402 212.578 225.887 213.093 225.252 213.093C224.617 213.093 224.102 212.578 224.102 211.943C224.102 211.308 224.617 210.794 225.252 210.794C225.887 210.794 226.402 211.308 226.402 211.943ZM216.596 216.65C217.231 216.65 217.746 216.136 217.746 215.501C217.746 214.866 217.231 214.351 216.596 214.351C215.961 214.351 215.446 214.866 215.446 215.501C215.446 216.136 215.961 216.65 216.596 216.65ZM222.074 215.501C222.074 216.136 221.559 216.65 220.924 216.65C220.289 216.65 219.774 216.136 219.774 215.501C219.774 214.866 220.289 214.351 220.924 214.351C221.559 214.351 222.074 214.866 222.074 215.501ZM225.252 216.65C225.887 216.65 226.402 216.136 226.402 215.501C226.402 214.866 225.887 214.351 225.252 214.351C224.617 214.351 224.102 214.866 224.102 215.501C224.102 216.136 224.617 216.65 225.252 216.65Z" fill="#FF8A4C"/>
</g>
<path d="M256.253 200.139H254.659C254.614 199.878 254.53 199.646 254.408 199.445C254.286 199.24 254.134 199.067 253.952 198.925C253.77 198.783 253.563 198.676 253.33 198.605C253.099 198.531 252.851 198.494 252.584 198.494C252.109 198.494 251.689 198.614 251.322 198.852C250.956 199.088 250.669 199.435 250.462 199.892C250.254 200.347 250.151 200.902 250.151 201.558C250.151 202.226 250.254 202.788 250.462 203.246C250.672 203.7 250.959 204.044 251.322 204.277C251.689 204.507 252.108 204.622 252.58 204.622C252.841 204.622 253.085 204.588 253.312 204.52C253.543 204.449 253.749 204.345 253.93 204.209C254.115 204.072 254.27 203.905 254.395 203.706C254.523 203.507 254.611 203.28 254.659 203.024L256.253 203.033C256.193 203.447 256.064 203.837 255.865 204.2C255.669 204.564 255.412 204.885 255.094 205.163C254.776 205.439 254.403 205.655 253.977 205.811C253.551 205.964 253.078 206.041 252.558 206.041C251.791 206.041 251.107 205.864 250.504 205.509C249.902 205.153 249.428 204.641 249.081 203.97C248.734 203.3 248.561 202.496 248.561 201.558C248.561 200.618 248.736 199.814 249.085 199.146C249.435 198.476 249.911 197.963 250.513 197.608C251.115 197.253 251.797 197.075 252.558 197.075C253.044 197.075 253.496 197.143 253.913 197.28C254.331 197.416 254.703 197.616 255.03 197.881C255.357 198.142 255.625 198.463 255.835 198.844C256.048 199.222 256.188 199.653 256.253 200.139ZM261.804 203.169V199.376H263.347V205.922H261.851V204.759H261.783C261.635 205.125 261.392 205.425 261.054 205.658C260.719 205.891 260.306 206.007 259.814 206.007C259.385 206.007 259.006 205.912 258.676 205.722C258.35 205.528 258.094 205.249 257.909 204.882C257.725 204.513 257.632 204.067 257.632 203.544V199.376H259.175V203.305C259.175 203.72 259.289 204.05 259.516 204.294C259.743 204.538 260.042 204.661 260.411 204.661C260.638 204.661 260.858 204.605 261.071 204.494C261.284 204.384 261.459 204.219 261.596 204C261.735 203.778 261.804 203.501 261.804 203.169ZM270.107 201.107L268.7 201.26C268.661 201.118 268.591 200.984 268.491 200.859C268.395 200.734 268.264 200.634 268.099 200.557C267.935 200.48 267.733 200.442 267.494 200.442C267.173 200.442 266.903 200.511 266.685 200.651C266.469 200.79 266.362 200.97 266.365 201.192C266.362 201.382 266.432 201.537 266.574 201.656C266.719 201.776 266.957 201.874 267.29 201.95L268.406 202.189C269.026 202.322 269.486 202.534 269.787 202.824C270.091 203.114 270.244 203.493 270.247 203.962C270.244 204.374 270.124 204.737 269.885 205.053C269.649 205.365 269.321 205.609 268.901 205.786C268.48 205.962 267.997 206.05 267.452 206.05C266.651 206.05 266.006 205.882 265.517 205.547C265.028 205.209 264.737 204.739 264.643 204.136L266.148 203.991C266.216 204.287 266.361 204.51 266.582 204.661C266.804 204.811 267.092 204.886 267.447 204.886C267.814 204.886 268.108 204.811 268.33 204.661C268.554 204.51 268.666 204.324 268.666 204.102C268.666 203.915 268.594 203.76 268.449 203.638C268.307 203.516 268.085 203.422 267.784 203.357L266.668 203.122C266.04 202.991 265.575 202.771 265.274 202.462C264.973 202.149 264.824 201.754 264.827 201.277C264.824 200.874 264.933 200.524 265.155 200.229C265.379 199.93 265.69 199.7 266.088 199.538C266.489 199.374 266.95 199.291 267.473 199.291C268.24 199.291 268.844 199.455 269.284 199.781C269.727 200.108 270.001 200.55 270.107 201.107ZM274.788 199.376V200.57H271.025V199.376H274.788ZM271.954 197.808H273.496V203.953C273.496 204.161 273.528 204.32 273.59 204.43C273.656 204.538 273.741 204.612 273.846 204.652C273.951 204.692 274.067 204.712 274.195 204.712C274.292 204.712 274.38 204.705 274.46 204.69C274.542 204.676 274.604 204.663 274.647 204.652L274.907 205.858C274.825 205.886 274.707 205.918 274.553 205.952C274.403 205.986 274.218 206.006 273.999 206.011C273.613 206.023 273.265 205.964 272.955 205.837C272.646 205.706 272.4 205.504 272.218 205.232C272.039 204.959 271.951 204.618 271.954 204.209V197.808ZM278.863 206.05C278.223 206.05 277.669 205.909 277.201 205.628C276.732 205.347 276.368 204.953 276.11 204.447C275.854 203.942 275.726 203.351 275.726 202.675C275.726 201.999 275.854 201.406 276.11 200.898C276.368 200.389 276.732 199.994 277.201 199.713C277.669 199.432 278.223 199.291 278.863 199.291C279.502 199.291 280.056 199.432 280.525 199.713C280.993 199.994 281.355 200.389 281.611 200.898C281.87 201.406 281.999 201.999 281.999 202.675C281.999 203.351 281.87 203.942 281.611 204.447C281.355 204.953 280.993 205.347 280.525 205.628C280.056 205.909 279.502 206.05 278.863 206.05ZM278.871 204.814C279.218 204.814 279.507 204.719 279.74 204.528C279.973 204.335 280.147 204.077 280.26 203.753C280.377 203.429 280.435 203.068 280.435 202.67C280.435 202.27 280.377 201.908 280.26 201.584C280.147 201.257 279.973 200.997 279.74 200.804C279.507 200.611 279.218 200.514 278.871 200.514C278.516 200.514 278.221 200.611 277.985 200.804C277.752 200.997 277.577 201.257 277.461 201.584C277.347 201.908 277.29 202.27 277.29 202.67C277.29 203.068 277.347 203.429 277.461 203.753C277.577 204.077 277.752 204.335 277.985 204.528C278.221 204.719 278.516 204.814 278.871 204.814ZM283.308 205.922V199.376H284.783V200.489H284.859C284.996 200.114 285.222 199.821 285.537 199.611C285.852 199.398 286.229 199.291 286.666 199.291C287.109 199.291 287.483 199.399 287.787 199.615C288.094 199.828 288.31 200.119 288.435 200.489H288.503C288.648 200.125 288.892 199.835 289.236 199.619C289.582 199.401 289.993 199.291 290.467 199.291C291.07 199.291 291.561 199.482 291.942 199.862C292.322 200.243 292.513 200.798 292.513 201.528V205.922H290.966V201.767C290.966 201.361 290.858 201.064 290.642 200.876C290.426 200.686 290.162 200.591 289.849 200.591C289.477 200.591 289.186 200.707 288.976 200.94C288.768 201.17 288.665 201.47 288.665 201.839V205.922H287.152V201.703C287.152 201.365 287.05 201.095 286.845 200.893C286.643 200.692 286.379 200.591 286.053 200.591C285.831 200.591 285.629 200.648 285.447 200.761C285.266 200.872 285.121 201.03 285.013 201.234C284.905 201.436 284.851 201.672 284.851 201.942V205.922H283.308ZM252.03 214.376V215.57H248.161V214.376H252.03ZM249.128 220.922V213.759C249.128 213.318 249.219 212.952 249.401 212.659C249.585 212.366 249.832 212.148 250.142 212.003C250.452 211.858 250.795 211.786 251.173 211.786C251.44 211.786 251.678 211.807 251.885 211.849C252.092 211.892 252.246 211.93 252.345 211.964L252.038 213.158C251.973 213.138 251.891 213.118 251.791 213.098C251.692 213.075 251.581 213.064 251.459 213.064C251.172 213.064 250.969 213.134 250.849 213.273C250.733 213.409 250.675 213.605 250.675 213.861V220.922H249.128ZM255.847 221.05C255.208 221.05 254.654 220.909 254.185 220.628C253.716 220.347 253.353 219.953 253.094 219.447C252.838 218.942 252.711 218.351 252.711 217.675C252.711 216.999 252.838 216.406 253.094 215.898C253.353 215.389 253.716 214.994 254.185 214.713C254.654 214.432 255.208 214.291 255.847 214.291C256.486 214.291 257.04 214.432 257.509 214.713C257.978 214.994 258.34 215.389 258.596 215.898C258.854 216.406 258.983 216.999 258.983 217.675C258.983 218.351 258.854 218.942 258.596 219.447C258.34 219.953 257.978 220.347 257.509 220.628C257.04 220.909 256.486 221.05 255.847 221.05ZM255.855 219.814C256.202 219.814 256.492 219.719 256.725 219.528C256.958 219.335 257.131 219.077 257.245 218.753C257.361 218.429 257.419 218.068 257.419 217.67C257.419 217.27 257.361 216.908 257.245 216.584C257.131 216.257 256.958 215.997 256.725 215.804C256.492 215.611 256.202 215.514 255.855 215.514C255.5 215.514 255.205 215.611 254.969 215.804C254.736 215.997 254.561 216.257 254.445 216.584C254.331 216.908 254.275 217.27 254.275 217.67C254.275 218.068 254.331 218.429 254.445 218.753C254.561 219.077 254.736 219.335 254.969 219.528C255.205 219.719 255.5 219.814 255.855 219.814ZM260.293 220.922V214.376H261.788V215.467H261.857C261.976 215.089 262.18 214.798 262.47 214.594C262.763 214.386 263.097 214.283 263.472 214.283C263.557 214.283 263.652 214.287 263.757 214.295C263.865 214.301 263.955 214.311 264.026 214.325V215.744C263.96 215.722 263.857 215.702 263.714 215.685C263.575 215.665 263.44 215.655 263.31 215.655C263.028 215.655 262.776 215.716 262.551 215.838C262.33 215.957 262.155 216.124 262.027 216.337C261.899 216.55 261.835 216.795 261.835 217.074V220.922H260.293ZM265.05 220.922V214.376H266.525V215.489H266.602C266.738 215.114 266.964 214.821 267.279 214.611C267.594 214.398 267.971 214.291 268.408 214.291C268.852 214.291 269.225 214.399 269.529 214.615C269.836 214.828 270.052 215.119 270.177 215.489H270.245C270.39 215.125 270.634 214.835 270.978 214.619C271.325 214.401 271.735 214.291 272.21 214.291C272.812 214.291 273.303 214.482 273.684 214.862C274.065 215.243 274.255 215.798 274.255 216.528V220.922H272.708V216.767C272.708 216.361 272.6 216.064 272.384 215.876C272.168 215.686 271.904 215.591 271.592 215.591C271.219 215.591 270.928 215.707 270.718 215.94C270.511 216.17 270.407 216.47 270.407 216.839V220.922H268.894V216.703C268.894 216.365 268.792 216.095 268.587 215.893C268.386 215.692 268.121 215.591 267.795 215.591C267.573 215.591 267.371 215.648 267.19 215.761C267.008 215.872 266.863 216.03 266.755 216.234C266.647 216.436 266.593 216.672 266.593 216.942V220.922H265.05ZM279.992 218.169V214.376H281.534V220.922H280.039V219.759H279.971C279.823 220.125 279.58 220.425 279.242 220.658C278.907 220.891 278.493 221.007 278.002 221.007C277.573 221.007 277.194 220.912 276.864 220.722C276.537 220.528 276.282 220.249 276.097 219.882C275.912 219.513 275.82 219.067 275.82 218.544V214.376H277.363V218.305C277.363 218.72 277.476 219.05 277.703 219.294C277.931 219.538 278.229 219.661 278.598 219.661C278.826 219.661 279.046 219.605 279.259 219.494C279.472 219.384 279.647 219.219 279.783 219C279.922 218.778 279.992 218.501 279.992 218.169ZM284.663 212.195V220.922H283.121V212.195H284.663ZM288.133 221.054C287.718 221.054 287.345 220.98 287.012 220.832C286.683 220.682 286.422 220.46 286.228 220.168C286.038 219.875 285.943 219.514 285.943 219.085C285.943 218.716 286.011 218.411 286.147 218.169C286.284 217.928 286.47 217.734 286.706 217.589C286.941 217.445 287.207 217.335 287.502 217.261C287.801 217.185 288.109 217.129 288.427 217.095C288.811 217.055 289.122 217.02 289.36 216.989C289.599 216.955 289.772 216.903 289.88 216.835C289.991 216.764 290.047 216.655 290.047 216.507V216.482C290.047 216.161 289.951 215.912 289.761 215.736C289.571 215.56 289.297 215.472 288.939 215.472C288.561 215.472 288.261 215.554 288.039 215.719C287.821 215.884 287.673 216.078 287.596 216.303L286.156 216.098C286.27 215.7 286.457 215.368 286.718 215.101C286.98 214.831 287.299 214.629 287.677 214.496C288.055 214.359 288.473 214.291 288.93 214.291C289.245 214.291 289.559 214.328 289.872 214.402C290.184 214.476 290.47 214.598 290.728 214.768C290.987 214.936 291.194 215.165 291.35 215.455C291.51 215.744 291.589 216.107 291.589 216.541V220.922H290.106V220.023H290.055C289.961 220.205 289.829 220.375 289.659 220.534C289.491 220.69 289.279 220.817 289.024 220.913C288.771 221.007 288.474 221.054 288.133 221.054ZM288.534 219.92C288.843 219.92 289.112 219.859 289.339 219.737C289.566 219.612 289.741 219.447 289.863 219.243C289.988 219.038 290.051 218.815 290.051 218.574V217.803C290.002 217.842 289.92 217.879 289.804 217.913C289.69 217.947 289.562 217.977 289.42 218.003C289.278 218.028 289.137 218.051 288.998 218.071C288.859 218.091 288.738 218.108 288.636 218.122C288.406 218.153 288.2 218.205 288.018 218.276C287.836 218.347 287.693 218.446 287.588 218.574C287.483 218.699 287.43 218.861 287.43 219.06C287.43 219.344 287.534 219.558 287.741 219.703C287.949 219.848 288.213 219.92 288.534 219.92ZM298.314 216.107L296.907 216.26C296.868 216.118 296.798 215.984 296.699 215.859C296.602 215.734 296.471 215.634 296.306 215.557C296.142 215.48 295.94 215.442 295.701 215.442C295.38 215.442 295.11 215.511 294.892 215.651C294.676 215.79 294.569 215.97 294.572 216.192C294.569 216.382 294.639 216.537 294.781 216.656C294.926 216.776 295.164 216.874 295.497 216.95L296.613 217.189C297.233 217.322 297.693 217.534 297.994 217.824C298.298 218.114 298.451 218.493 298.454 218.962C298.451 219.374 298.331 219.737 298.092 220.053C297.856 220.365 297.528 220.609 297.108 220.786C296.687 220.962 296.204 221.05 295.659 221.05C294.858 221.05 294.213 220.882 293.724 220.547C293.235 220.209 292.944 219.739 292.85 219.136L294.355 218.991C294.423 219.287 294.568 219.51 294.789 219.661C295.011 219.811 295.299 219.886 295.654 219.886C296.021 219.886 296.315 219.811 296.537 219.661C296.761 219.51 296.873 219.324 296.873 219.102C296.873 218.915 296.801 218.76 296.656 218.638C296.514 218.516 296.292 218.422 295.991 218.357L294.875 218.122C294.247 217.991 293.782 217.771 293.481 217.462C293.18 217.149 293.031 216.754 293.034 216.277C293.031 215.874 293.14 215.524 293.362 215.229C293.586 214.93 293.897 214.7 294.295 214.538C294.696 214.374 295.157 214.291 295.68 214.291C296.447 214.291 297.051 214.455 297.491 214.781C297.934 215.108 298.208 215.55 298.314 216.107Z" fill="#181C2A"/>
<g filter="url(#filter3_d_6273_20336)">
<path d="M77.3984 61C77.3984 50.5066 85.905 42 96.3984 42C106.892 42 115.398 50.5066 115.398 61C115.398 71.4934 106.892 80 96.3984 80C85.905 80 77.3984 71.4934 77.3984 61Z" fill="white" fill-opacity="0.9"/>
<path d="M101.899 58.525H100.524V56.4625C100.524 55.4779 100.089 54.5336 99.3156 53.8374C98.542 53.1411 97.4928 52.75 96.3988 52.75C95.3047 52.75 94.2555 53.1411 93.4819 53.8374C92.7084 54.5336 92.2738 55.4779 92.2738 56.4625V58.525H90.8988C90.4125 58.525 89.9462 58.6988 89.6024 59.0083C89.2586 59.3177 89.0654 59.7374 89.0654 60.175V67.6C89.0654 68.0376 89.2586 68.4573 89.6024 68.7667C89.9462 69.0762 90.4125 69.25 90.8988 69.25H101.899C102.385 69.25 102.851 69.0762 103.195 68.7667C103.539 68.4573 103.732 68.0376 103.732 67.6V60.175C103.732 59.7374 103.539 59.3177 103.195 59.0083C102.851 58.6988 102.385 58.525 101.899 58.525ZM97.3154 65.125C97.3154 65.3438 97.2189 65.5536 97.0469 65.7084C96.875 65.8631 96.6419 65.95 96.3988 65.95C96.1556 65.95 95.9225 65.8631 95.7506 65.7084C95.5787 65.5536 95.4821 65.3438 95.4821 65.125V62.65C95.4821 62.4312 95.5787 62.2214 95.7506 62.0666C95.9225 61.9119 96.1556 61.825 96.3988 61.825C96.6419 61.825 96.875 61.9119 97.0469 62.0666C97.2189 62.2214 97.3154 62.4312 97.3154 62.65V65.125ZM98.6904 58.525H94.1071V56.4625C94.1071 55.9155 94.3485 55.3909 94.7783 55.0041C95.2081 54.6173 95.791 54.4 96.3988 54.4C97.0066 54.4 97.5894 54.6173 98.0192 55.0041C98.449 55.3909 98.6904 55.9155 98.6904 56.4625V58.525Z" fill="#7E3AF2"/>
</g>
<path d="M124.259 58V49.2727H127.532C128.202 49.2727 128.765 49.3977 129.219 49.6477C129.677 49.8977 130.022 50.2415 130.255 50.679C130.491 51.1136 130.609 51.608 130.609 52.1619C130.609 52.7216 130.491 53.2187 130.255 53.6534C130.019 54.0881 129.671 54.4304 129.211 54.6804C128.751 54.9276 128.184 55.0511 127.511 55.0511H125.342V53.7514H127.298C127.69 53.7514 128.011 53.6832 128.261 53.5469C128.511 53.4105 128.695 53.223 128.815 52.9844C128.937 52.7457 128.998 52.4716 128.998 52.1619C128.998 51.8523 128.937 51.5795 128.815 51.3438C128.695 51.108 128.509 50.9247 128.256 50.794C128.006 50.6605 127.684 50.5938 127.289 50.5938H125.84V58H124.259ZM134.718 58.1278C134.061 58.1278 133.495 57.9915 133.017 57.7188C132.543 57.4432 132.178 57.054 131.922 56.5511C131.667 56.0455 131.539 55.4503 131.539 54.7656C131.539 54.0923 131.667 53.5014 131.922 52.9929C132.181 52.4815 132.542 52.0838 133.005 51.7997C133.468 51.5128 134.012 51.3693 134.637 51.3693C135.04 51.3693 135.421 51.4347 135.779 51.5653C136.14 51.6932 136.458 51.892 136.733 52.1619C137.012 52.4318 137.23 52.7756 137.39 53.1932C137.549 53.608 137.628 54.1023 137.628 54.6761V55.1491H132.263V54.1094H136.15C136.147 53.8139 136.083 53.5511 135.958 53.321C135.833 53.0881 135.658 52.9048 135.434 52.7713C135.212 52.6378 134.953 52.571 134.658 52.571C134.343 52.571 134.066 52.6477 133.827 52.8011C133.588 52.9517 133.402 53.1506 133.269 53.3977C133.138 53.642 133.071 53.9105 133.069 54.2031V55.1108C133.069 55.4915 133.138 55.8182 133.277 56.0909C133.417 56.3608 133.611 56.5682 133.861 56.7131C134.111 56.8551 134.404 56.9261 134.739 56.9261C134.963 56.9261 135.167 56.8949 135.348 56.8324C135.53 56.767 135.688 56.6719 135.821 56.5469C135.955 56.4219 136.056 56.267 136.124 56.0824L137.564 56.2443C137.473 56.625 137.3 56.9574 137.044 57.2415C136.792 57.5227 136.468 57.7415 136.073 57.8977C135.678 58.0511 135.226 58.1278 134.718 58.1278ZM138.933 58V51.4545H140.429V52.5455H140.497C140.616 52.1676 140.821 51.8764 141.111 51.6719C141.403 51.4645 141.737 51.3608 142.112 51.3608C142.197 51.3608 142.293 51.3651 142.398 51.3736C142.506 51.3793 142.595 51.3892 142.666 51.4034V52.8224C142.601 52.7997 142.497 52.7798 142.355 52.7628C142.216 52.7429 142.081 52.733 141.95 52.733C141.669 52.733 141.416 52.794 141.192 52.9162C140.97 53.0355 140.795 53.2017 140.668 53.4148C140.54 53.6278 140.476 53.8736 140.476 54.152V58H138.933ZM143.691 58V51.4545H145.165V52.5668H145.242C145.379 52.1918 145.604 51.8991 145.92 51.6889C146.235 51.4759 146.612 51.3693 147.049 51.3693C147.492 51.3693 147.866 51.4773 148.17 51.6932C148.477 51.9062 148.692 52.1974 148.817 52.5668H148.886C149.031 52.2031 149.275 51.9134 149.619 51.6974C149.965 51.4787 150.376 51.3693 150.85 51.3693C151.452 51.3693 151.944 51.5597 152.325 51.9403C152.705 52.321 152.896 52.8764 152.896 53.6065V58H151.349V53.8452C151.349 53.4389 151.241 53.142 151.025 52.9545C150.809 52.7642 150.545 52.669 150.232 52.669C149.86 52.669 149.569 52.7855 149.359 53.0185C149.151 53.2486 149.048 53.5483 149.048 53.9176V58H147.535V53.7812C147.535 53.4432 147.433 53.1733 147.228 52.9716C147.026 52.7699 146.762 52.669 146.435 52.669C146.214 52.669 146.012 52.7259 145.83 52.8395C145.648 52.9503 145.504 53.108 145.396 53.3125C145.288 53.5142 145.234 53.75 145.234 54.0199V58H143.691ZM154.461 58V51.4545H156.003V58H154.461ZM155.236 50.5256C154.992 50.5256 154.782 50.4446 154.605 50.2827C154.429 50.1179 154.341 49.9205 154.341 49.6903C154.341 49.4574 154.429 49.2599 154.605 49.098C154.782 48.9332 154.992 48.8509 155.236 48.8509C155.483 48.8509 155.694 48.9332 155.867 49.098C156.043 49.2599 156.131 49.4574 156.131 49.6903C156.131 49.9205 156.043 50.1179 155.867 50.2827C155.694 50.4446 155.483 50.5256 155.236 50.5256ZM162.763 53.1847L161.357 53.3381C161.317 53.196 161.247 53.0625 161.148 52.9375C161.051 52.8125 160.92 52.7116 160.756 52.6349C160.591 52.5582 160.389 52.5199 160.151 52.5199C159.83 52.5199 159.56 52.5895 159.341 52.7287C159.125 52.8679 159.018 53.0483 159.021 53.2699C159.018 53.4602 159.088 53.6151 159.23 53.7344C159.375 53.8537 159.614 53.9517 159.946 54.0284L161.062 54.267C161.682 54.4006 162.142 54.6122 162.443 54.902C162.747 55.1918 162.901 55.571 162.903 56.0398C162.901 56.4517 162.78 56.8153 162.541 57.1307C162.305 57.4432 161.977 57.6875 161.557 57.8636C161.136 58.0398 160.653 58.1278 160.108 58.1278C159.307 58.1278 158.662 57.9602 158.173 57.625C157.685 57.2869 157.393 56.8168 157.3 56.2145L158.804 56.0696C158.872 56.3651 159.017 56.5881 159.239 56.7386C159.46 56.8892 159.749 56.9645 160.104 56.9645C160.47 56.9645 160.764 56.8892 160.986 56.7386C161.21 56.5881 161.322 56.402 161.322 56.1804C161.322 55.9929 161.25 55.8381 161.105 55.7159C160.963 55.5937 160.741 55.5 160.44 55.4347L159.324 55.2003C158.696 55.0696 158.232 54.8494 157.93 54.5398C157.629 54.2273 157.48 53.8324 157.483 53.3551C157.48 52.9517 157.589 52.6023 157.811 52.3068C158.036 52.0085 158.347 51.7784 158.744 51.6165C159.145 51.4517 159.607 51.3693 160.129 51.3693C160.896 51.3693 161.5 51.5327 161.94 51.8594C162.384 52.1861 162.658 52.6278 162.763 53.1847ZM169.349 53.1847L167.942 53.3381C167.903 53.196 167.833 53.0625 167.734 52.9375C167.637 52.8125 167.506 52.7116 167.342 52.6349C167.177 52.5582 166.975 52.5199 166.737 52.5199C166.415 52.5199 166.146 52.5895 165.927 52.7287C165.711 52.8679 165.604 53.0483 165.607 53.2699C165.604 53.4602 165.674 53.6151 165.816 53.7344C165.961 53.8537 166.2 53.9517 166.532 54.0284L167.648 54.267C168.268 54.4006 168.728 54.6122 169.029 54.902C169.333 55.1918 169.487 55.571 169.489 56.0398C169.487 56.4517 169.366 56.8153 169.127 57.1307C168.891 57.4432 168.563 57.6875 168.143 57.8636C167.722 58.0398 167.239 58.1278 166.694 58.1278C165.893 58.1278 165.248 57.9602 164.759 57.625C164.271 57.2869 163.979 56.8168 163.886 56.2145L165.39 56.0696C165.458 56.3651 165.603 56.5881 165.825 56.7386C166.046 56.8892 166.335 56.9645 166.69 56.9645C167.056 56.9645 167.35 56.8892 167.572 56.7386C167.796 56.5881 167.908 56.402 167.908 56.1804C167.908 55.9929 167.836 55.8381 167.691 55.7159C167.549 55.5937 167.327 55.5 167.026 55.4347L165.91 55.2003C165.282 55.0696 164.817 54.8494 164.516 54.5398C164.215 54.2273 164.066 53.8324 164.069 53.3551C164.066 52.9517 164.175 52.6023 164.397 52.3068C164.621 52.0085 164.933 51.7784 165.33 51.6165C165.731 51.4517 166.192 51.3693 166.715 51.3693C167.482 51.3693 168.086 51.5327 168.526 51.8594C168.969 52.1861 169.244 52.6278 169.349 53.1847ZM170.761 58V51.4545H172.304V58H170.761ZM171.537 50.5256C171.293 50.5256 171.082 50.4446 170.906 50.2827C170.73 50.1179 170.642 49.9205 170.642 49.6903C170.642 49.4574 170.73 49.2599 170.906 49.098C171.082 48.9332 171.293 48.8509 171.537 48.8509C171.784 48.8509 171.994 48.9332 172.168 49.098C172.344 49.2599 172.432 49.4574 172.432 49.6903C172.432 49.9205 172.344 50.1179 172.168 50.2827C171.994 50.4446 171.784 50.5256 171.537 50.5256ZM176.745 58.1278C176.106 58.1278 175.552 57.9872 175.083 57.706C174.615 57.4247 174.251 57.0312 173.993 56.5256C173.737 56.0199 173.609 55.429 173.609 54.7528C173.609 54.0767 173.737 53.4844 173.993 52.9759C174.251 52.4673 174.615 52.0724 175.083 51.7912C175.552 51.5099 176.106 51.3693 176.745 51.3693C177.385 51.3693 177.939 51.5099 178.407 51.7912C178.876 52.0724 179.238 52.4673 179.494 52.9759C179.752 53.4844 179.882 54.0767 179.882 54.7528C179.882 55.429 179.752 56.0199 179.494 56.5256C179.238 57.0312 178.876 57.4247 178.407 57.706C177.939 57.9872 177.385 58.1278 176.745 58.1278ZM176.754 56.892C177.1 56.892 177.39 56.7969 177.623 56.6065C177.856 56.4134 178.029 56.1548 178.143 55.831C178.26 55.5071 178.318 55.1463 178.318 54.7486C178.318 54.348 178.26 53.9858 178.143 53.6619C178.029 53.3352 177.856 53.0753 177.623 52.8821C177.39 52.6889 177.1 52.5923 176.754 52.5923C176.399 52.5923 176.103 52.6889 175.868 52.8821C175.635 53.0753 175.46 53.3352 175.343 53.6619C175.23 53.9858 175.173 54.348 175.173 54.7486C175.173 55.1463 175.23 55.5071 175.343 55.831C175.46 56.1548 175.635 56.4134 175.868 56.6065C176.103 56.7969 176.399 56.892 176.754 56.892ZM182.734 54.1648V58H181.191V51.4545H182.665V52.5668H182.742C182.893 52.2003 183.133 51.9091 183.462 51.6932C183.795 51.4773 184.205 51.3693 184.694 51.3693C185.146 51.3693 185.539 51.4659 185.874 51.6591C186.212 51.8523 186.474 52.1321 186.658 52.4986C186.846 52.8651 186.938 53.3097 186.935 53.8324V58H185.393V54.071C185.393 53.6335 185.279 53.2912 185.052 53.044C184.827 52.7969 184.516 52.6733 184.119 52.6733C183.849 52.6733 183.609 52.733 183.398 52.8523C183.191 52.9687 183.028 53.1378 182.908 53.3594C182.792 53.581 182.734 53.8494 182.734 54.1648ZM127.046 73.1278C126.393 73.1278 125.832 72.9844 125.363 72.6974C124.897 72.4105 124.538 72.0142 124.285 71.5085C124.035 71 123.91 70.4148 123.91 69.7528C123.91 69.0881 124.038 68.5014 124.293 67.9929C124.549 67.4815 124.91 67.0838 125.376 66.7997C125.844 66.5128 126.398 66.3693 127.038 66.3693C127.569 66.3693 128.039 66.4673 128.448 66.6634C128.86 66.8565 129.188 67.1307 129.433 67.4858C129.677 67.8381 129.816 68.25 129.85 68.7216H128.376C128.316 68.4062 128.174 68.1435 127.95 67.9332C127.728 67.7202 127.431 67.6136 127.059 67.6136C126.744 67.6136 126.467 67.6989 126.228 67.8693C125.989 68.0369 125.803 68.2784 125.67 68.5938C125.539 68.9091 125.474 69.2869 125.474 69.7273C125.474 70.1733 125.539 70.5568 125.67 70.8778C125.8 71.196 125.984 71.4418 126.219 71.6151C126.458 71.7855 126.738 71.8707 127.059 71.8707C127.286 71.8707 127.489 71.8281 127.668 71.7429C127.85 71.6548 128.002 71.5284 128.124 71.3636C128.246 71.1989 128.33 70.9986 128.376 70.7628H129.85C129.813 71.2259 129.677 71.6364 129.441 71.9943C129.205 72.3494 128.884 72.6278 128.478 72.8295C128.072 73.0284 127.594 73.1278 127.046 73.1278ZM133.972 73.1278C133.333 73.1278 132.779 72.9872 132.31 72.706C131.841 72.4247 131.478 72.0312 131.219 71.5256C130.963 71.0199 130.836 70.429 130.836 69.7528C130.836 69.0767 130.963 68.4844 131.219 67.9759C131.478 67.4673 131.841 67.0724 132.31 66.7912C132.779 66.5099 133.333 66.3693 133.972 66.3693C134.611 66.3693 135.165 66.5099 135.634 66.7912C136.103 67.0724 136.465 67.4673 136.721 67.9759C136.979 68.4844 137.108 69.0767 137.108 69.7528C137.108 70.429 136.979 71.0199 136.721 71.5256C136.465 72.0312 136.103 72.4247 135.634 72.706C135.165 72.9872 134.611 73.1278 133.972 73.1278ZM133.98 71.892C134.327 71.892 134.617 71.7969 134.85 71.6065C135.083 71.4134 135.256 71.1548 135.37 70.831C135.486 70.5071 135.544 70.1463 135.544 69.7486C135.544 69.348 135.486 68.9858 135.37 68.6619C135.256 68.3352 135.083 68.0753 134.85 67.8821C134.617 67.6889 134.327 67.5923 133.98 67.5923C133.625 67.5923 133.33 67.6889 133.094 67.8821C132.861 68.0753 132.686 68.3352 132.57 68.6619C132.456 68.9858 132.4 69.348 132.4 69.7486C132.4 70.1463 132.456 70.5071 132.57 70.831C132.686 71.1548 132.861 71.4134 133.094 71.6065C133.33 71.7969 133.625 71.892 133.98 71.892ZM139.96 69.1648V73H138.418V66.4545H139.892V67.5668H139.969C140.119 67.2003 140.359 66.9091 140.689 66.6932C141.021 66.4773 141.432 66.3693 141.92 66.3693C142.372 66.3693 142.766 66.4659 143.101 66.6591C143.439 66.8523 143.7 67.1321 143.885 67.4986C144.072 67.8651 144.165 68.3097 144.162 68.8324V73H142.619V69.071C142.619 68.6335 142.506 68.2912 142.278 68.044C142.054 67.7969 141.743 67.6733 141.345 67.6733C141.075 67.6733 140.835 67.733 140.625 67.8523C140.418 67.9687 140.254 68.1378 140.135 68.3594C140.018 68.581 139.96 68.8494 139.96 69.1648ZM148.999 66.4545V67.6477H145.236V66.4545H148.999ZM146.165 64.8864H147.707V71.0312C147.707 71.2386 147.739 71.3977 147.801 71.5085C147.866 71.6165 147.952 71.6903 148.057 71.7301C148.162 71.7699 148.278 71.7898 148.406 71.7898C148.503 71.7898 148.591 71.7827 148.67 71.7685C148.753 71.7543 148.815 71.7415 148.858 71.7301L149.118 72.9361C149.036 72.9645 148.918 72.9957 148.764 73.0298C148.614 73.0639 148.429 73.0838 148.21 73.0895C147.824 73.1009 147.476 73.0426 147.166 72.9148C146.857 72.7841 146.611 72.5824 146.429 72.3097C146.25 72.0369 146.162 71.696 146.165 71.2869V64.8864ZM150.289 73V66.4545H151.784V67.5455H151.853C151.972 67.1676 152.176 66.8764 152.466 66.6719C152.759 66.4645 153.093 66.3608 153.468 66.3608C153.553 66.3608 153.648 66.3651 153.753 66.3736C153.861 66.3793 153.951 66.3892 154.022 66.4034V67.8224C153.956 67.7997 153.853 67.7798 153.711 67.7628C153.571 67.7429 153.436 67.733 153.306 67.733C153.025 67.733 152.772 67.794 152.547 67.9162C152.326 68.0355 152.151 68.2017 152.023 68.4148C151.895 68.6278 151.831 68.8736 151.831 69.152V73H150.289ZM157.632 73.1278C156.993 73.1278 156.439 72.9872 155.97 72.706C155.501 72.4247 155.138 72.0312 154.879 71.5256C154.624 71.0199 154.496 70.429 154.496 69.7528C154.496 69.0767 154.624 68.4844 154.879 67.9759C155.138 67.4673 155.501 67.0724 155.97 66.7912C156.439 66.5099 156.993 66.3693 157.632 66.3693C158.271 66.3693 158.825 66.5099 159.294 66.7912C159.763 67.0724 160.125 67.4673 160.381 67.9759C160.639 68.4844 160.768 69.0767 160.768 69.7528C160.768 70.429 160.639 71.0199 160.381 71.5256C160.125 72.0312 159.763 72.4247 159.294 72.706C158.825 72.9872 158.271 73.1278 157.632 73.1278ZM157.641 71.892C157.987 71.892 158.277 71.7969 158.51 71.6065C158.743 71.4134 158.916 71.1548 159.03 70.831C159.146 70.5071 159.205 70.1463 159.205 69.7486C159.205 69.348 159.146 68.9858 159.03 68.6619C158.916 68.3352 158.743 68.0753 158.51 67.8821C158.277 67.6889 157.987 67.5923 157.641 67.5923C157.286 67.5923 156.99 67.6889 156.754 67.8821C156.521 68.0753 156.347 68.3352 156.23 68.6619C156.116 68.9858 156.06 69.348 156.06 69.7486C156.06 70.1463 156.116 70.5071 156.23 70.831C156.347 71.1548 156.521 71.4134 156.754 71.6065C156.99 71.7969 157.286 71.892 157.641 71.892ZM163.62 64.2727V73H162.078V64.2727H163.62Z" fill="#181C2A"/>
<g filter="url(#filter4_d_6273_20336)">
<path d="M27.3984 213.297C27.3984 202.803 35.905 194.297 46.3984 194.297C56.8918 194.297 65.3984 202.803 65.3984 213.297C65.3984 223.79 56.8918 232.297 46.3984 232.297C35.905 232.297 27.3984 223.79 27.3984 213.297Z" fill="white" fill-opacity="0.9"/>
<path d="M54.5463 205.047H38.25C37.6875 205.047 37.2314 205.481 37.2314 206.017V207.959C37.2314 208.495 37.6875 208.929 38.25 208.929H54.5463C55.1088 208.929 55.5648 208.495 55.5648 207.959V206.017C55.5648 205.481 55.1088 205.047 54.5463 205.047Z" fill="#3F83F8"/>
<path d="M38.25 210.87V219.606C38.25 220.121 38.4646 220.614 38.8466 220.978C39.2286 221.342 39.7467 221.547 40.287 221.547H52.5092C53.0495 221.547 53.5676 221.342 53.9496 220.978C54.3316 220.614 54.5463 220.121 54.5463 219.606V210.87H38.25ZM49.4537 213.782C49.4537 214.04 49.3464 214.286 49.1553 214.468C48.9643 214.65 48.7053 214.753 48.4351 214.753H44.3611C44.0909 214.753 43.8319 214.65 43.6409 214.468C43.4499 214.286 43.3426 214.04 43.3426 213.782V212.812C43.3426 212.554 43.4499 212.307 43.6409 212.125C43.8319 211.943 44.0909 211.841 44.3611 211.841C44.6312 211.841 44.8903 211.943 45.0813 212.125C45.2723 212.307 45.3796 212.554 45.3796 212.812H47.4166C47.4166 212.554 47.5239 212.307 47.7149 212.125C47.906 211.943 48.165 211.841 48.4351 211.841C48.7053 211.841 48.9643 211.943 49.1553 212.125C49.3464 212.307 49.4537 212.554 49.4537 212.812V213.782Z" fill="#3F83F8"/>
</g>
<path d="M81.7294 204.514H80.1357C80.0902 204.253 80.0064 204.021 79.8842 203.82C79.7621 203.615 79.6101 203.442 79.4283 203.3C79.2464 203.158 79.0391 203.051 78.8061 202.98C78.576 202.906 78.3274 202.869 78.0604 202.869C77.5859 202.869 77.1655 202.989 76.799 203.227C76.4325 203.463 76.1456 203.81 75.9382 204.267C75.7308 204.722 75.6271 205.277 75.6271 205.933C75.6271 206.601 75.7308 207.163 75.9382 207.621C76.1484 208.075 76.4354 208.419 76.799 208.652C77.1655 208.882 77.5845 208.997 78.0561 208.997C78.3175 208.997 78.5618 208.963 78.7891 208.895C79.0192 208.824 79.2251 208.72 79.407 208.584C79.5916 208.447 79.7464 208.28 79.8714 208.081C79.9993 207.882 80.0874 207.655 80.1357 207.399L81.7294 207.408C81.6697 207.822 81.5405 208.212 81.3416 208.575C81.1456 208.939 80.8885 209.26 80.5703 209.538C80.2521 209.814 79.88 210.03 79.4538 210.186C79.0277 210.339 78.5547 210.416 78.0348 210.416C77.2678 210.416 76.5831 210.239 75.9808 209.884C75.3786 209.528 74.9041 209.016 74.5575 208.345C74.2109 207.675 74.0376 206.871 74.0376 205.933C74.0376 204.993 74.2124 204.189 74.5618 203.521C74.9112 202.851 75.3871 202.338 75.9893 201.983C76.5916 201.628 77.2734 201.45 78.0348 201.45C78.5206 201.45 78.9723 201.518 79.3899 201.655C79.8075 201.791 80.1797 201.991 80.5064 202.256C80.8331 202.517 81.1016 202.838 81.3118 203.219C81.5249 203.597 81.6641 204.028 81.7294 204.514ZM87.2809 207.544V203.751H88.8235V210.297H87.3278V209.134H87.2596C87.1119 209.5 86.869 209.8 86.5309 210.033C86.1957 210.266 85.7823 210.382 85.2908 210.382C84.8619 210.382 84.4826 210.287 84.1531 210.097C83.8263 209.903 83.5707 209.624 83.386 209.257C83.2013 208.888 83.109 208.442 83.109 207.919V203.751H84.6516V207.68C84.6516 208.095 84.7653 208.425 84.9925 208.669C85.2198 208.913 85.5181 209.036 85.8874 209.036C86.1147 209.036 86.3349 208.98 86.5479 208.869C86.761 208.759 86.9357 208.594 87.0721 208.375C87.2113 208.153 87.2809 207.876 87.2809 207.544ZM95.5831 205.482L94.1768 205.635C94.1371 205.493 94.0675 205.359 93.968 205.234C93.8714 205.109 93.7408 205.009 93.576 204.932C93.4112 204.855 93.2095 204.817 92.9709 204.817C92.6499 204.817 92.38 204.886 92.1612 205.026C91.9453 205.165 91.8388 205.345 91.8416 205.567C91.8388 205.757 91.9084 205.912 92.0504 206.031C92.1953 206.151 92.4339 206.249 92.7663 206.325L93.8828 206.564C94.5021 206.697 94.9624 206.909 95.2635 207.199C95.5675 207.489 95.7209 207.868 95.7237 208.337C95.7209 208.749 95.6001 209.112 95.3615 209.428C95.1257 209.74 94.7976 209.984 94.3771 210.161C93.9567 210.337 93.4737 210.425 92.9283 210.425C92.1271 210.425 91.4822 210.257 90.9936 209.922C90.505 209.584 90.2138 209.114 90.12 208.511L91.6243 208.366C91.6925 208.662 91.8374 208.885 92.0589 209.036C92.2805 209.186 92.5689 209.261 92.924 209.261C93.2905 209.261 93.5845 209.186 93.8061 209.036C94.0305 208.885 94.1428 208.699 94.1428 208.477C94.1428 208.29 94.0703 208.135 93.9254 208.013C93.7834 207.891 93.5618 207.797 93.2607 207.732L92.1442 207.497C91.5163 207.366 91.0518 207.146 90.7507 206.837C90.4496 206.524 90.3004 206.129 90.3033 205.652C90.3004 205.249 90.4098 204.899 90.6314 204.604C90.8558 204.305 91.1669 204.075 91.5646 203.913C91.9652 203.749 92.4268 203.666 92.9496 203.666C93.7166 203.666 94.3203 203.83 94.7607 204.156C95.2038 204.483 95.478 204.925 95.5831 205.482ZM100.264 203.751V204.945H96.5014V203.751H100.264ZM97.4304 202.183H98.973V208.328C98.973 208.536 99.0043 208.695 99.0668 208.805C99.1321 208.913 99.2173 208.987 99.3224 209.027C99.4276 209.067 99.544 209.087 99.6719 209.087C99.7685 209.087 99.8565 209.08 99.9361 209.065C100.018 209.051 100.081 209.038 100.124 209.027L100.384 210.233C100.301 210.261 100.183 210.293 100.03 210.327C99.8793 210.361 99.6946 210.381 99.4759 210.386C99.0895 210.398 98.7415 210.339 98.4318 210.212C98.1222 210.081 97.8764 209.879 97.6946 209.607C97.5156 209.334 97.4276 208.993 97.4304 208.584V202.183ZM104.339 210.425C103.7 210.425 103.146 210.284 102.677 210.003C102.208 209.722 101.845 209.328 101.586 208.822C101.331 208.317 101.203 207.726 101.203 207.05C101.203 206.374 101.331 205.781 101.586 205.273C101.845 204.764 102.208 204.369 102.677 204.088C103.146 203.807 103.7 203.666 104.339 203.666C104.978 203.666 105.532 203.807 106.001 204.088C106.47 204.369 106.832 204.764 107.088 205.273C107.346 205.781 107.475 206.374 107.475 207.05C107.475 207.726 107.346 208.317 107.088 208.822C106.832 209.328 106.47 209.722 106.001 210.003C105.532 210.284 104.978 210.425 104.339 210.425ZM104.348 209.189C104.694 209.189 104.984 209.094 105.217 208.903C105.45 208.71 105.623 208.452 105.737 208.128C105.853 207.804 105.912 207.443 105.912 207.045C105.912 206.645 105.853 206.283 105.737 205.959C105.623 205.632 105.45 205.372 105.217 205.179C104.984 204.986 104.694 204.889 104.348 204.889C103.993 204.889 103.697 204.986 103.461 205.179C103.228 205.372 103.054 205.632 102.937 205.959C102.824 206.283 102.767 206.645 102.767 207.045C102.767 207.443 102.824 207.804 102.937 208.128C103.054 208.452 103.228 208.71 103.461 208.903C103.697 209.094 103.993 209.189 104.348 209.189ZM108.785 210.297V203.751H110.259V204.864H110.336C110.472 204.489 110.698 204.196 111.013 203.986C111.329 203.773 111.705 203.666 112.143 203.666C112.586 203.666 112.96 203.774 113.263 203.99C113.57 204.203 113.786 204.494 113.911 204.864H113.979C114.124 204.5 114.369 204.21 114.712 203.994C115.059 203.776 115.469 203.666 115.944 203.666C116.546 203.666 117.038 203.857 117.418 204.237C117.799 204.618 117.989 205.173 117.989 205.903V210.297H116.442V206.142C116.442 205.736 116.335 205.439 116.119 205.251C115.903 205.061 115.638 204.966 115.326 204.966C114.954 204.966 114.663 205.082 114.452 205.315C114.245 205.545 114.141 205.845 114.141 206.214V210.297H112.629V206.078C112.629 205.74 112.526 205.47 112.322 205.268C112.12 205.067 111.856 204.966 111.529 204.966C111.308 204.966 111.106 205.023 110.924 205.136C110.742 205.247 110.597 205.405 110.489 205.609C110.381 205.811 110.327 206.047 110.327 206.317V210.297H108.785ZM77.5064 218.751V219.945H73.6371V218.751H77.5064ZM74.6044 225.297V218.134C74.6044 217.693 74.6953 217.327 74.8771 217.034C75.0618 216.741 75.3089 216.523 75.6186 216.378C75.9283 216.233 76.272 216.161 76.6499 216.161C76.9169 216.161 77.1541 216.182 77.3615 216.224C77.5689 216.267 77.7223 216.305 77.8217 216.339L77.5149 217.533C77.4496 217.513 77.3672 217.493 77.2678 217.473C77.1683 217.45 77.0575 217.439 76.9354 217.439C76.6484 217.439 76.4453 217.509 76.326 217.648C76.2095 217.784 76.1513 217.98 76.1513 218.236V225.297H74.6044ZM81.3661 225.425C80.7099 225.425 80.1431 225.288 79.6658 225.016C79.1914 224.74 78.8263 224.351 78.5707 223.848C78.315 223.342 78.1871 222.747 78.1871 222.062C78.1871 221.389 78.315 220.798 78.5707 220.29C78.8292 219.778 79.19 219.381 79.6531 219.097C80.1161 218.81 80.6602 218.666 81.2852 218.666C81.6886 218.666 82.0692 218.732 82.4272 218.862C82.788 218.99 83.1062 219.189 83.3817 219.459C83.6602 219.729 83.8789 220.072 84.038 220.49C84.1971 220.905 84.2766 221.399 84.2766 221.973V222.446H78.9116V221.406H82.7979C82.7951 221.111 82.7312 220.848 82.6062 220.618C82.4812 220.385 82.3065 220.202 82.082 220.068C81.8604 219.935 81.6019 219.868 81.3065 219.868C80.9911 219.868 80.7141 219.945 80.4755 220.098C80.2369 220.249 80.0508 220.447 79.9173 220.695C79.7866 220.939 79.7198 221.207 79.717 221.5V222.408C79.717 222.788 79.7866 223.115 79.9258 223.388C80.065 223.658 80.2596 223.865 80.5096 224.01C80.7596 224.152 81.0522 224.223 81.3874 224.223C81.6119 224.223 81.815 224.192 81.9968 224.129C82.1786 224.064 82.3363 223.969 82.4698 223.844C82.6033 223.719 82.7042 223.564 82.7724 223.379L84.2127 223.541C84.1218 223.922 83.9485 224.254 83.6928 224.538C83.44 224.82 83.1161 225.038 82.7212 225.195C82.3263 225.348 81.8746 225.425 81.3661 225.425ZM87.4652 225.429C87.0504 225.429 86.6768 225.355 86.3445 225.207C86.0149 225.057 85.7536 224.835 85.5604 224.543C85.37 224.25 85.2749 223.889 85.2749 223.46C85.2749 223.091 85.343 222.786 85.4794 222.544C85.6158 222.303 85.8018 222.109 86.0376 221.964C86.2734 221.82 86.5391 221.71 86.8345 221.636C87.1328 221.56 87.4411 221.504 87.7592 221.47C88.1428 221.43 88.4538 221.395 88.6925 221.364C88.9311 221.33 89.1044 221.278 89.2124 221.21C89.3232 221.139 89.3786 221.03 89.3786 220.882V220.857C89.3786 220.536 89.2834 220.287 89.093 220.111C88.9027 219.935 88.6286 219.847 88.2706 219.847C87.8928 219.847 87.593 219.929 87.3714 220.094C87.1527 220.259 87.005 220.453 86.9283 220.678L85.4879 220.473C85.6016 220.075 85.7891 219.743 86.0504 219.476C86.3118 219.206 86.6314 219.004 87.0092 218.871C87.3871 218.734 87.8047 218.666 88.2621 218.666C88.5774 218.666 88.8913 218.703 89.2038 218.777C89.5163 218.851 89.8018 218.973 90.0604 219.143C90.3189 219.311 90.5263 219.54 90.6825 219.83C90.8416 220.119 90.9212 220.482 90.9212 220.916V225.297H89.4382V224.398H89.3871C89.2933 224.58 89.1612 224.75 88.9908 224.909C88.8232 225.065 88.6115 225.192 88.3558 225.288C88.103 225.382 87.8061 225.429 87.4652 225.429ZM87.8658 224.295C88.1754 224.295 88.4439 224.234 88.6712 224.112C88.8984 223.987 89.0732 223.822 89.1953 223.618C89.3203 223.413 89.3828 223.19 89.3828 222.949V222.178C89.3345 222.217 89.2521 222.254 89.1357 222.288C89.022 222.322 88.8942 222.352 88.7521 222.378C88.6101 222.403 88.4695 222.426 88.3303 222.446C88.1911 222.466 88.0703 222.483 87.968 222.497C87.7379 222.528 87.532 222.58 87.3501 222.651C87.1683 222.722 87.0249 222.821 86.9197 222.949C86.8146 223.074 86.7621 223.236 86.7621 223.435C86.7621 223.719 86.8658 223.933 87.0732 224.078C87.2805 224.223 87.5447 224.295 87.8658 224.295ZM95.7408 218.751V219.945H91.978V218.751H95.7408ZM92.907 217.183H94.4496V223.328C94.4496 223.536 94.4808 223.695 94.5433 223.805C94.6087 223.913 94.6939 223.987 94.799 224.027C94.9041 224.067 95.0206 224.087 95.1484 224.087C95.245 224.087 95.3331 224.08 95.4126 224.065C95.495 224.051 95.5575 224.038 95.6001 224.027L95.8601 225.233C95.7777 225.261 95.6598 225.293 95.5064 225.327C95.3558 225.361 95.1712 225.381 94.9524 225.386C94.5661 225.398 94.218 225.339 93.9084 225.212C93.5987 225.081 93.353 224.879 93.1712 224.607C92.9922 224.334 92.9041 223.993 92.907 223.584V217.183ZM101.203 222.544V218.751H102.745V225.297H101.25V224.134H101.181C101.034 224.5 100.791 224.8 100.453 225.033C100.118 225.266 99.7042 225.382 99.2127 225.382C98.7837 225.382 98.4045 225.287 98.0749 225.097C97.7482 224.903 97.4925 224.624 97.3079 224.257C97.1232 223.888 97.0309 223.442 97.0309 222.919V218.751H98.5735V222.68C98.5735 223.095 98.6871 223.425 98.9144 223.669C99.1417 223.913 99.44 224.036 99.8093 224.036C100.037 224.036 100.257 223.98 100.47 223.869C100.683 223.759 100.858 223.594 100.994 223.375C101.133 223.153 101.203 222.876 101.203 222.544ZM104.332 225.297V218.751H105.827V219.842H105.896C106.015 219.464 106.219 219.173 106.509 218.969C106.802 218.761 107.136 218.658 107.511 218.658C107.596 218.658 107.691 218.662 107.796 218.67C107.904 218.676 107.994 218.686 108.065 218.7V220.119C107.999 220.097 107.896 220.077 107.754 220.06C107.614 220.04 107.479 220.03 107.349 220.03C107.067 220.03 106.815 220.091 106.59 220.213C106.369 220.332 106.194 220.499 106.066 220.712C105.938 220.925 105.874 221.17 105.874 221.449V225.297H104.332ZM111.718 225.425C111.061 225.425 110.495 225.288 110.017 225.016C109.543 224.74 109.178 224.351 108.922 223.848C108.667 223.342 108.539 222.747 108.539 222.062C108.539 221.389 108.667 220.798 108.922 220.29C109.181 219.778 109.542 219.381 110.005 219.097C110.468 218.81 111.012 218.666 111.637 218.666C112.04 218.666 112.421 218.732 112.779 218.862C113.14 218.99 113.458 219.189 113.733 219.459C114.012 219.729 114.23 220.072 114.39 220.49C114.549 220.905 114.628 221.399 114.628 221.973V222.446H109.263V221.406H113.15C113.147 221.111 113.083 220.848 112.958 220.618C112.833 220.385 112.658 220.202 112.434 220.068C112.212 219.935 111.953 219.868 111.658 219.868C111.343 219.868 111.066 219.945 110.827 220.098C110.588 220.249 110.402 220.447 110.269 220.695C110.138 220.939 110.071 221.207 110.069 221.5V222.408C110.069 222.788 110.138 223.115 110.277 223.388C110.417 223.658 110.611 223.865 110.861 224.01C111.111 224.152 111.404 224.223 111.739 224.223C111.963 224.223 112.167 224.192 112.348 224.129C112.53 224.064 112.688 223.969 112.821 223.844C112.955 223.719 113.056 223.564 113.124 223.379L114.564 223.541C114.473 223.922 114.3 224.254 114.044 224.538C113.792 224.82 113.468 225.038 113.073 225.195C112.678 225.348 112.226 225.425 111.718 225.425Z" fill="#181C2A"/>
<g filter="url(#filter5_di_6273_20336)">
<rect x="144" y="252.203" width="10" height="10" rx="5" fill="url(#paint9_radial_6273_20336)" fill-opacity="0.9" shape-rendering="crispEdges"/>
<rect x="144.52" y="252.723" width="8.96076" height="8.96076" rx="4.48038" stroke="url(#paint10_radial_6273_20336)" stroke-opacity="0.8" stroke-width="1.03924" shape-rendering="crispEdges"/>
</g>
<g filter="url(#filter6_di_6273_20336)">
<rect x="270" y="68.2031" width="10" height="10" rx="5" fill="url(#paint11_radial_6273_20336)" fill-opacity="0.9" shape-rendering="crispEdges"/>
<rect x="270.52" y="68.7227" width="8.96076" height="8.96076" rx="4.48038" stroke="url(#paint12_radial_6273_20336)" stroke-opacity="0.8" stroke-width="1.03924" shape-rendering="crispEdges"/>
</g>
<g filter="url(#filter7_di_6273_20336)">
<path d="M39.7624 115.351C40.7397 115.65 41.0264 116.895 40.2785 117.592L34.7722 122.721C34.0243 123.417 32.8027 123.043 32.5733 122.047L30.8848 114.714C30.6555 113.718 31.5904 112.847 32.5677 113.147L39.7624 115.351Z" fill="url(#paint13_radial_6273_20336)" fill-opacity="0.9" shape-rendering="crispEdges"/>
<path d="M39.6102 115.848C40.2051 116.03 40.3795 116.788 39.9243 117.212L34.4181 122.341C33.9628 122.765 33.2193 122.537 33.0797 121.931L31.3912 114.598C31.2516 113.991 31.8207 113.461 32.4155 113.644L39.6102 115.848Z" stroke="url(#paint14_radial_6273_20336)" stroke-opacity="0.8" stroke-width="1.03924" shape-rendering="crispEdges"/>
</g>
<defs>
<filter id="filter0_d_6273_20336" x="94.4814" y="88.4785" width="127.03" height="127.031" filterUnits="userSpaceOnUse" color-interpolation-filters="sRGB">
<feFlood flood-opacity="0" result="BackgroundImageFix"/>
<feColorMatrix in="SourceAlpha" type="matrix" values="0 0 0 0 0 0 0 0 0 0 0 0 0 0 0 0 0 0 127 0" result="hardAlpha"/>
<feOffset dx="-2" dy="4"/>
<feGaussianBlur stdDeviation="12"/>
<feComposite in2="hardAlpha" operator="out"/>
<feColorMatrix type="matrix" values="0 0 0 0 0.20276 0 0 0 0 0.465753 0 0 0 0 0.954167 0 0 0 0.1 0"/>
<feBlend mode="normal" in2="BackgroundImageFix" result="effect1_dropShadow_6273_20336"/>
<feBlend mode="normal" in="SourceGraphic" in2="effect1_dropShadow_6273_20336" result="shape"/>
</filter>
<filter id="filter1_f_6273_20336" x="128.793" y="118.174" width="62.459" height="59.8398" filterUnits="userSpaceOnUse" color-interpolation-filters="sRGB">
<feFlood flood-opacity="0" result="BackgroundImageFix"/>
<feBlend mode="normal" in="SourceGraphic" in2="BackgroundImageFix" result="shape"/>
<feGaussianBlur stdDeviation="3.75" result="effect1_foregroundBlur_6273_20336"/>
</filter>
<filter id="filter2_d_6273_20336" x="192.922" y="184.922" width="56" height="56" filterUnits="userSpaceOnUse" color-interpolation-filters="sRGB">
<feFlood flood-opacity="0" result="BackgroundImageFix"/>
<feColorMatrix in="SourceAlpha" type="matrix" values="0 0 0 0 0 0 0 0 0 0 0 0 0 0 0 0 0 0 127 0" result="hardAlpha"/>
<feMorphology radius="1" operator="erode" in="SourceAlpha" result="effect1_dropShadow_6273_20336"/>
<feOffset dy="4"/>
<feGaussianBlur stdDeviation="5"/>
<feColorMatrix type="matrix" values="0 0 0 0 0.054902 0 0 0 0 0.0666667 0 0 0 0 0.117647 0 0 0 0.1 0"/>
<feBlend mode="normal" in2="BackgroundImageFix" result="effect1_dropShadow_6273_20336"/>
<feBlend mode="normal" in="SourceGraphic" in2="effect1_dropShadow_6273_20336" result="shape"/>
</filter>
<filter id="filter3_d_6273_20336" x="68.3984" y="37" width="56" height="56" filterUnits="userSpaceOnUse" color-interpolation-filters="sRGB">
<feFlood flood-opacity="0" result="BackgroundImageFix"/>
<feColorMatrix in="SourceAlpha" type="matrix" values="0 0 0 0 0 0 0 0 0 0 0 0 0 0 0 0 0 0 127 0" result="hardAlpha"/>
<feMorphology radius="1" operator="erode" in="SourceAlpha" result="effect1_dropShadow_6273_20336"/>
<feOffset dy="4"/>
<feGaussianBlur stdDeviation="5"/>
<feColorMatrix type="matrix" values="0 0 0 0 0.054902 0 0 0 0 0.0666667 0 0 0 0 0.117647 0 0 0 0.1 0"/>
<feBlend mode="normal" in2="BackgroundImageFix" result="effect1_dropShadow_6273_20336"/>
<feBlend mode="normal" in="SourceGraphic" in2="effect1_dropShadow_6273_20336" result="shape"/>
</filter>
<filter id="filter4_d_6273_20336" x="18.3984" y="189.297" width="56" height="56" filterUnits="userSpaceOnUse" color-interpolation-filters="sRGB">
<feFlood flood-opacity="0" result="BackgroundImageFix"/>
<feColorMatrix in="SourceAlpha" type="matrix" values="0 0 0 0 0 0 0 0 0 0 0 0 0 0 0 0 0 0 127 0" result="hardAlpha"/>
<feMorphology radius="1" operator="erode" in="SourceAlpha" result="effect1_dropShadow_6273_20336"/>
<feOffset dy="4"/>
<feGaussianBlur stdDeviation="5"/>
<feColorMatrix type="matrix" values="0 0 0 0 0.054902 0 0 0 0 0.0666667 0 0 0 0 0.117647 0 0 0 0.1 0"/>
<feBlend mode="normal" in2="BackgroundImageFix" result="effect1_dropShadow_6273_20336"/>
<feBlend mode="normal" in="SourceGraphic" in2="effect1_dropShadow_6273_20336" result="shape"/>
</filter>
<filter id="filter5_di_6273_20336" x="123.215" y="247.007" width="41.1771" height="41.1771" filterUnits="userSpaceOnUse" color-interpolation-filters="sRGB">
<feFlood flood-opacity="0" result="BackgroundImageFix"/>
<feColorMatrix in="SourceAlpha" type="matrix" values="0 0 0 0 0 0 0 0 0 0 0 0 0 0 0 0 0 0 127 0" result="hardAlpha"/>
<feOffset dx="-5.19619" dy="10.3924"/>
<feGaussianBlur stdDeviation="7.79428"/>
<feComposite in2="hardAlpha" operator="out"/>
<feColorMatrix type="matrix" values="0 0 0 0 0.133333 0 0 0 0 0.32549 0 0 0 0 0.682353 0 0 0 0.06 0"/>
<feBlend mode="normal" in2="BackgroundImageFix" result="effect1_dropShadow_6273_20336"/>
<feBlend mode="normal" in="SourceGraphic" in2="effect1_dropShadow_6273_20336" result="shape"/>
<feColorMatrix in="SourceAlpha" type="matrix" values="0 0 0 0 0 0 0 0 0 0 0 0 0 0 0 0 0 0 127 0" result="hardAlpha"/>
<feOffset dx="-1.03924" dy="1.03924"/>
<feGaussianBlur stdDeviation="2.59809"/>
<feComposite in2="hardAlpha" operator="arithmetic" k2="-1" k3="1"/>
<feColorMatrix type="matrix" values="0 0 0 0 0.87639 0 0 0 0 0.913352 0 0 0 0 1 0 0 0 1 0"/>
<feBlend mode="normal" in2="shape" result="effect2_innerShadow_6273_20336"/>
</filter>
<filter id="filter6_di_6273_20336" x="249.215" y="63.0069" width="41.1771" height="41.1771" filterUnits="userSpaceOnUse" color-interpolation-filters="sRGB">
<feFlood flood-opacity="0" result="BackgroundImageFix"/>
<feColorMatrix in="SourceAlpha" type="matrix" values="0 0 0 0 0 0 0 0 0 0 0 0 0 0 0 0 0 0 127 0" result="hardAlpha"/>
<feOffset dx="-5.19619" dy="10.3924"/>
<feGaussianBlur stdDeviation="7.79428"/>
<feComposite in2="hardAlpha" operator="out"/>
<feColorMatrix type="matrix" values="0 0 0 0 0.133333 0 0 0 0 0.32549 0 0 0 0 0.682353 0 0 0 0.06 0"/>
<feBlend mode="normal" in2="BackgroundImageFix" result="effect1_dropShadow_6273_20336"/>
<feBlend mode="normal" in="SourceGraphic" in2="effect1_dropShadow_6273_20336" result="shape"/>
<feColorMatrix in="SourceAlpha" type="matrix" values="0 0 0 0 0 0 0 0 0 0 0 0 0 0 0 0 0 0 127 0" result="hardAlpha"/>
<feOffset dx="-1.03924" dy="1.03924"/>
<feGaussianBlur stdDeviation="2.59809"/>
<feComposite in2="hardAlpha" operator="arithmetic" k2="-1" k3="1"/>
<feColorMatrix type="matrix" values="0 0 0 0 0.87639 0 0 0 0 0.913352 0 0 0 0 1 0 0 0 1 0"/>
<feBlend mode="normal" in2="shape" result="effect2_innerShadow_6273_20336"/>
</filter>
<filter id="filter7_di_6273_20336" x="10.0649" y="107.89" width="41.0297" height="41.1693" filterUnits="userSpaceOnUse" color-interpolation-filters="sRGB">
<feFlood flood-opacity="0" result="BackgroundImageFix"/>
<feColorMatrix in="SourceAlpha" type="matrix" values="0 0 0 0 0 0 0 0 0 0 0 0 0 0 0 0 0 0 127 0" result="hardAlpha"/>
<feOffset dx="-5.19619" dy="10.3924"/>
<feGaussianBlur stdDeviation="7.79428"/>
<feComposite in2="hardAlpha" operator="out"/>
<feColorMatrix type="matrix" values="0 0 0 0 0.133333 0 0 0 0 0.32549 0 0 0 0 0.682353 0 0 0 0.06 0"/>
<feBlend mode="normal" in2="BackgroundImageFix" result="effect1_dropShadow_6273_20336"/>
<feBlend mode="normal" in="SourceGraphic" in2="effect1_dropShadow_6273_20336" result="shape"/>
<feColorMatrix in="SourceAlpha" type="matrix" values="0 0 0 0 0 0 0 0 0 0 0 0 0 0 0 0 0 0 127 0" result="hardAlpha"/>
<feOffset dx="-1.03924" dy="1.03924"/>
<feGaussianBlur stdDeviation="2.59809"/>
<feComposite in2="hardAlpha" operator="arithmetic" k2="-1" k3="1"/>
<feColorMatrix type="matrix" values="0 0 0 0 0.87639 0 0 0 0 0.913352 0 0 0 0 1 0 0 0 1 0"/>
<feBlend mode="normal" in2="shape" result="effect2_innerShadow_6273_20336"/>
</filter>
<linearGradient id="paint0_linear_6273_20336" x1="128.161" y1="99.7588" x2="198.682" y2="193.18" gradientUnits="userSpaceOnUse">
<stop stop-color="#055AFA"/>
<stop offset="1" stop-color="#00CAAC"/>
</linearGradient>
<linearGradient id="paint1_linear_6273_20336" x1="117.288" y1="83.2944" x2="211.917" y2="208.653" gradientUnits="userSpaceOnUse">
<stop stop-color="#055AFA"/>
<stop offset="1" stop-color="#00CAAC"/>
</linearGradient>
<radialGradient id="paint2_radial_6273_20336" cx="0" cy="0" r="1" gradientUnits="userSpaceOnUse" gradientTransform="translate(120.481 187.502) rotate(-44.7848) scale(108.397 111.648)">
<stop stop-color="white"/>
<stop offset="0.421875" stop-color="#F1F5FF"/>
<stop offset="1" stop-color="white"/>
</radialGradient>
<linearGradient id="paint3_linear_6273_20336" x1="159.997" y1="108.479" x2="159.997" y2="187.509" gradientUnits="userSpaceOnUse">
<stop stop-color="white"/>
<stop offset="1" stop-color="white" stop-opacity="0"/>
</linearGradient>
<linearGradient id="paint4_linear_6273_20336" x1="159.997" y1="108.479" x2="159.997" y2="187.509" gradientUnits="userSpaceOnUse">
<stop stop-color="white"/>
<stop offset="1" stop-color="white" stop-opacity="0"/>
</linearGradient>
<linearGradient id="paint5_linear_6273_20336" x1="159.997" y1="108.479" x2="159.997" y2="187.509" gradientUnits="userSpaceOnUse">
<stop stop-color="white"/>
<stop offset="1" stop-color="white" stop-opacity="0"/>
</linearGradient>
<radialGradient id="paint6_radial_6273_20336" cx="0" cy="0" r="1" gradientUnits="userSpaceOnUse" gradientTransform="translate(120.481 111.173) rotate(44.1148) scale(106.392 204.556)">
<stop stop-color="white"/>
<stop offset="0.546875" stop-color="white" stop-opacity="0.6"/>
<stop offset="1" stop-color="white"/>
</radialGradient>
<linearGradient id="paint7_linear_6273_20336" x1="143.22" y1="137.329" x2="177.273" y2="159.144" gradientUnits="userSpaceOnUse">
<stop stop-color="#0048FF"/>
<stop offset="0.328125" stop-color="#0C81ED"/>
<stop offset="0.65" stop-color="#029DCE"/>
<stop offset="0.88" stop-color="#00BBB0"/>
<stop offset="0.963542" stop-color="#00C5A8"/>
</linearGradient>
<linearGradient id="paint8_linear_6273_20336" x1="143.22" y1="137.329" x2="177.273" y2="159.144" gradientUnits="userSpaceOnUse">
<stop stop-color="#0048FF"/>
<stop offset="0.328125" stop-color="#0C81ED"/>
<stop offset="0.65" stop-color="#029DCE"/>
<stop offset="0.88" stop-color="#00BBB0"/>
<stop offset="0.963542" stop-color="#00C5A8"/>
</linearGradient>
<radialGradient id="paint9_radial_6273_20336" cx="0" cy="0" r="1" gradientUnits="userSpaceOnUse" gradientTransform="translate(144 262.202) rotate(-44.7848) scale(13.7158 14.1272)">
<stop stop-color="#2768FF"/>
<stop offset="1" stop-color="#8A5AF0"/>
</radialGradient>
<radialGradient id="paint10_radial_6273_20336" cx="0" cy="0" r="1" gradientUnits="userSpaceOnUse" gradientTransform="translate(144 252.544) rotate(44.1148) scale(13.4621 25.8833)">
<stop stop-color="white"/>
<stop offset="0.546875" stop-color="white" stop-opacity="0.6"/>
<stop offset="1" stop-color="white"/>
</radialGradient>
<radialGradient id="paint11_radial_6273_20336" cx="0" cy="0" r="1" gradientUnits="userSpaceOnUse" gradientTransform="translate(270 78.2022) rotate(-41.4656) scale(17.9321 18.4699)">
<stop stop-color="#53E8CD"/>
<stop offset="1" stop-color="#54CCFF"/>
</radialGradient>
<radialGradient id="paint12_radial_6273_20336" cx="0" cy="0" r="1" gradientUnits="userSpaceOnUse" gradientTransform="translate(270 68.544) rotate(44.1148) scale(13.4621 25.8833)">
<stop stop-color="white"/>
<stop offset="0.546875" stop-color="white" stop-opacity="0.6"/>
<stop offset="1" stop-color="white"/>
</radialGradient>
<radialGradient id="paint13_radial_6273_20336" cx="0" cy="0" r="1" gradientUnits="userSpaceOnUse" gradientTransform="translate(26.7488 112.344) rotate(32.2484) scale(19.2022 19.7781)">
<stop stop-color="#2768FF"/>
<stop offset="1" stop-color="#8B54FF"/>
</radialGradient>
<radialGradient id="paint14_radial_6273_20336" cx="0" cy="0" r="1" gradientUnits="userSpaceOnUse" gradientTransform="translate(39.9255 109.31) rotate(121.148) scale(18.8469 36.2366)">
<stop stop-color="white"/>
<stop offset="0.546875" stop-color="white" stop-opacity="0.6"/>
<stop offset="1" stop-color="white"/>
</radialGradient>
</defs>
</svg>
