<svg width="55" height="54" viewBox="0 0 55 54" fill="none" xmlns="http://www.w3.org/2000/svg">
<g filter="url(#filter0_b_39_17039)">
<rect x="0.333496" width="54" height="54" rx="16" fill="url(#paint0_linear_39_17039)"/>
<rect x="0.833496" y="0.5" width="53" height="53" rx="15.5" stroke="url(#paint1_linear_39_17039)"/>
<path fill-rule="evenodd" clip-rule="evenodd" d="M22.1068 17H32.769C33.5444 17 34.2758 17.3597 34.7491 17.9738L38.5074 22.8501C39.2467 23.8093 39.1922 25.1605 38.378 26.057L29.1833 36.1808C28.255 37.2029 26.6739 37.2789 25.6519 36.3506C25.5932 36.2973 25.537 36.2412 25.4836 36.1826L16.2906 26.0799C15.4595 25.1665 15.4198 23.7832 16.197 22.8237L20.1642 17.9264C20.6389 17.3404 21.3527 17 22.1068 17ZM32.3306 24.0536C32.3306 23.4619 31.8509 22.9822 31.2592 22.9822H22.7111L22.6079 22.9871C22.0646 23.039 21.6396 23.4967 21.6396 24.0536C21.6396 24.6453 22.1193 25.125 22.7111 25.125H31.2592L31.3623 25.1201C31.9057 25.0682 32.3306 24.6105 32.3306 24.0536Z" fill="url(#paint2_linear_39_17039)"/>
</g>
<defs>
<filter id="filter0_b_39_17039" x="-29.6665" y="-30" width="114" height="114" filterUnits="userSpaceOnUse" color-interpolation-filters="sRGB">
<feFlood flood-opacity="0" result="BackgroundImageFix"/>
<feGaussianBlur in="BackgroundImageFix" stdDeviation="15"/>
<feComposite in2="SourceAlpha" operator="in" result="effect1_backgroundBlur_39_17039"/>
<feBlend mode="normal" in="SourceGraphic" in2="effect1_backgroundBlur_39_17039" result="shape"/>
</filter>
<linearGradient id="paint0_linear_39_17039" x1="3.38211" y1="50.9514" x2="51.2849" y2="3.04861" gradientUnits="userSpaceOnUse">
<stop stop-color="white" stop-opacity="0.2"/>
<stop offset="1" stop-color="white" stop-opacity="0.6"/>
</linearGradient>
<linearGradient id="paint1_linear_39_17039" x1="4.14529" y1="4.247" x2="49.2842" y2="52.5109" gradientUnits="userSpaceOnUse">
<stop stop-color="white"/>
<stop offset="1" stop-color="white" stop-opacity="0"/>
</linearGradient>
<linearGradient id="paint2_linear_39_17039" x1="16.7051" y1="18.3662" x2="31.9046" y2="36.6591" gradientUnits="userSpaceOnUse">
<stop stop-color="#D4DAEE"/>
<stop offset="1" stop-color="white"/>
</linearGradient>
</defs>
</svg>