<svg width="54" height="54" viewBox="0 0 54 54" fill="none" xmlns="http://www.w3.org/2000/svg">
<g filter="url(#filter0_b_39_16923)">
<rect width="54.0047" height="54" rx="16" fill="url(#paint0_linear_39_16923)"/>
<rect x="0.5" y="0.5" width="53.0047" height="53" rx="15.5" stroke="url(#paint1_linear_39_16923)"/>
<path fill-rule="evenodd" clip-rule="evenodd" d="M28.6742 16.9763L37.0262 25.3285C38.3309 26.6331 38.3309 28.7486 37.0262 30.0533L30.0583 37.0216C29.7481 37.3318 29.3799 37.5778 28.9746 37.7457C28.5694 37.9136 28.135 38 27.6963 38C27.2577 38 26.8233 37.9136 26.418 37.7457C26.0127 37.5778 25.6445 37.3318 25.3343 37.0216L16.9794 28.6664C16.3526 28.0399 16.0003 27.1902 16 26.304V19.3379C16 17.4927 17.4978 16.001 19.3426 16.001L26.3129 16C26.7513 15.9997 27.1855 16.0858 27.5906 16.2533C27.9958 16.4208 28.364 16.6665 28.6742 16.9763ZM20.708 23.8432C20.708 22.1071 22.1153 20.6998 23.8514 20.6998C25.5872 20.6998 26.9946 22.1071 26.9946 23.8431C26.9946 25.5791 25.5874 26.9863 23.8514 26.9863C22.1153 26.9863 20.708 25.5792 20.708 23.8432Z" fill="white"/>
</g>
<defs>
<filter id="filter0_b_39_16923" x="-30" y="-30" width="114.005" height="114" filterUnits="userSpaceOnUse" color-interpolation-filters="sRGB">
<feFlood flood-opacity="0" result="BackgroundImageFix"/>
<feGaussianBlur in="BackgroundImageFix" stdDeviation="15"/>
<feComposite in2="SourceAlpha" operator="in" result="effect1_backgroundBlur_39_16923"/>
<feBlend mode="normal" in="SourceGraphic" in2="effect1_backgroundBlur_39_16923" result="shape"/>
</filter>
<linearGradient id="paint0_linear_39_16923" x1="3.04888" y1="50.9514" x2="50.9517" y2="3.04444" gradientUnits="userSpaceOnUse">
<stop stop-color="white" stop-opacity="0.2"/>
<stop offset="1" stop-color="white" stop-opacity="0.6"/>
</linearGradient>
<linearGradient id="paint1_linear_39_16923" x1="3.81212" y1="4.247" x2="48.9507" y2="52.5148" gradientUnits="userSpaceOnUse">
<stop stop-color="white"/>
<stop offset="1" stop-color="white" stop-opacity="0"/>
</linearGradient>
</defs>
</svg>