<svg width="55" height="54" viewBox="0 0 55 54" fill="none" xmlns="http://www.w3.org/2000/svg">
<g filter="url(#filter0_b_39_16962)">
<rect x="0.666504" width="54" height="54" rx="16" fill="url(#paint0_linear_39_16962)"/>
<rect x="1.1665" y="0.5" width="53" height="53" rx="15.5" stroke="url(#paint1_linear_39_16962)"/>
<path fill-rule="evenodd" clip-rule="evenodd" d="M27.6667 34.1502L24.1464 36.0009C22.1482 37.0514 19.8127 35.3546 20.1943 33.1295L20.8666 29.2097L18.0187 26.4336C16.4021 24.8578 17.2941 22.1123 19.5283 21.7876L23.464 21.2157L25.2242 17.6493C26.2233 15.6249 29.1101 15.6249 30.1092 17.6493L31.8694 21.2157L35.8051 21.7876C38.0392 22.1123 38.9313 24.8578 37.3147 26.4336L34.4668 29.2097L35.1391 33.1295C35.5207 35.3546 33.1852 37.0514 31.187 36.0009L27.6667 34.1502Z" fill="url(#paint2_linear_39_16962)"/>
</g>
<defs>
<filter id="filter0_b_39_16962" x="-29.3335" y="-30" width="114" height="114" filterUnits="userSpaceOnUse" color-interpolation-filters="sRGB">
<feFlood flood-opacity="0" result="BackgroundImageFix"/>
<feGaussianBlur in="BackgroundImageFix" stdDeviation="15"/>
<feComposite in2="SourceAlpha" operator="in" result="effect1_backgroundBlur_39_16962"/>
<feBlend mode="normal" in="SourceGraphic" in2="effect1_backgroundBlur_39_16962" result="shape"/>
</filter>
<linearGradient id="paint0_linear_39_16962" x1="3.71512" y1="50.9514" x2="51.6179" y2="3.04861" gradientUnits="userSpaceOnUse">
<stop stop-color="white" stop-opacity="0.2"/>
<stop offset="1" stop-color="white" stop-opacity="0.6"/>
</linearGradient>
<linearGradient id="paint1_linear_39_16962" x1="4.4783" y1="4.247" x2="49.6172" y2="52.5109" gradientUnits="userSpaceOnUse">
<stop stop-color="white"/>
<stop offset="1" stop-color="white" stop-opacity="0"/>
</linearGradient>
<linearGradient id="paint2_linear_39_16962" x1="14.6696" y1="14.6538" x2="36.7697" y2="37.3991" gradientUnits="userSpaceOnUse">
<stop stop-color="#D4DAEE"/>
<stop offset="1" stop-color="white"/>
</linearGradient>
</defs>
</svg>