<svg xmlns="http://www.w3.org/2000/svg" width="20" height="21" viewBox="0 0 20 21" fill="none">
  <path d="M15.0558 2.1665H8.19075C7.52242 2.1665 6.89408 2.4265 6.42242 2.899L4.06575 5.25567C3.59325 5.72734 3.33325 6.35567 3.33325 7.024V17.1665C3.33325 18.0857 4.05575 18.8332 4.94409 18.8332H15.0558C15.9441 18.8332 16.6666 18.0857 16.6666 17.1665V3.83317C16.6666 2.914 15.9441 2.1665 15.0558 2.1665ZM7.49992 4.17817V6.33317H5.34492L7.49992 4.17817ZM4.99992 17.1665V7.99984H7.49992C8.41909 7.99984 9.16658 7.25234 9.16658 6.33317V3.82984L14.9958 3.8115C14.9958 3.8115 14.9999 3.81817 14.9999 3.83317L15.0558 17.1665H4.99992Z" fill="url(#paint0_linear_69_29853)"/>
  <path d="M12.6374 9.67817C12.1833 9.604 11.7541 9.90984 11.6783 10.3632L11.2658 12.8357L10.7449 11.794C10.4624 11.229 9.53658 11.229 9.25408 11.794L8.73325 12.8357L8.32075 10.3632C8.24492 9.90984 7.82075 9.60234 7.36158 9.67817C6.90825 9.754 6.60075 10.1832 6.67659 10.6373L7.50992 15.6373C7.56909 15.9932 7.85075 16.2707 8.20742 16.324C8.56575 16.3798 8.91575 16.1957 9.07659 15.8723L9.99992 14.0298L10.9208 15.8723C11.0641 16.1582 11.3541 16.3332 11.6666 16.3332C11.7074 16.3332 11.7491 16.3307 11.7908 16.324C12.1474 16.2707 12.4291 15.9932 12.4883 15.6373L13.3216 10.6373C13.3974 10.1832 13.0908 9.75317 12.6374 9.67817Z" fill="url(#paint1_linear_69_29853)"/>
  <defs>
    <linearGradient id="paint0_linear_69_29853" x1="2.90987" y1="2.1665" x2="7.7506" y2="2.18228" gradientUnits="userSpaceOnUse">
      <stop stop-color="#40FFD9"/>
      <stop offset="0.404452" stop-color="#64BCFF"/>
      <stop offset="0.95" stop-color="#40FFD9"/>
    </linearGradient>
    <linearGradient id="paint1_linear_69_29853" x1="2.90987" y1="2.1665" x2="7.7506" y2="2.18228" gradientUnits="userSpaceOnUse">
      <stop stop-color="#40FFD9"/>
      <stop offset="0.404452" stop-color="#64BCFF"/>
      <stop offset="0.95" stop-color="#40FFD9"/>
    </linearGradient>
  </defs>
</svg>