<svg width="20" height="20" viewBox="0 0 20 20" fill="none" xmlns="http://www.w3.org/2000/svg">
<g id="file-word-outline">
<g id="Vector">
<path d="M15.0559 1.66699H8.19087C7.52254 1.66699 6.89421 1.92699 6.42254 2.39949L4.06587 4.75616C3.59337 5.22783 3.33337 5.85616 3.33337 6.52449V16.667C3.33337 17.5862 4.05587 18.3337 4.94421 18.3337H15.0559C15.9442 18.3337 16.6667 17.5862 16.6667 16.667V3.33366C16.6667 2.41449 15.9442 1.66699 15.0559 1.66699ZM7.50004 3.67866V5.83366H5.34504L7.50004 3.67866ZM5.00004 16.667V7.50033H7.50004C8.41921 7.50033 9.16671 6.75283 9.16671 5.83366V3.33033L14.9959 3.31199C14.9959 3.31199 15 3.31866 15 3.33366L15.0559 16.667H5.00004Z" fill="white"/>
<path d="M12.6375 9.17866C12.1834 9.10449 11.7542 9.41033 11.6784 9.86366L11.2659 12.3362L10.745 11.2945C10.4625 10.7295 9.53671 10.7295 9.25421 11.2945L8.73337 12.3362L8.32087 9.86366C8.24504 9.41033 7.82087 9.10283 7.36171 9.17866C6.90837 9.25449 6.60087 9.68366 6.67671 10.1378L7.51004 15.1378C7.56921 15.4937 7.85087 15.7712 8.20754 15.8245C8.56587 15.8803 8.91587 15.6962 9.07671 15.3728L10 13.5303L10.9209 15.3728C11.0642 15.6587 11.3542 15.8337 11.6667 15.8337C11.7075 15.8337 11.7492 15.8312 11.7909 15.8245C12.1475 15.7712 12.4292 15.4937 12.4884 15.1378L13.3217 10.1378C13.3975 9.68366 13.0909 9.25366 12.6375 9.17866Z" fill="white"/>
</g>
</g>
</svg>
