<svg xmlns="http://www.w3.org/2000/svg" width="21" height="21" viewBox="0 0 21 21" fill="none">
  <path d="M16.1942 16.3332C15.7334 16.3332 15.3884 16.7065 15.3884 17.1665L5.33841 17.1882C5.33841 17.1882 5.33341 17.1815 5.33341 17.1665C5.33341 16.7065 4.96091 16.3332 4.50008 16.3332C4.03925 16.3332 3.66675 16.7065 3.66675 17.1665C3.66675 18.0857 4.38925 18.8332 5.27841 18.8332H15.3892C16.2776 18.8332 17.0001 18.0857 17.0001 17.1665C17.0001 16.7065 16.6551 16.3332 16.1942 16.3332Z" fill="white"/>
  <path d="M15.3884 2.1665H8.52341C7.85591 2.1665 7.22758 2.4265 6.75591 2.899L4.39925 5.25567C3.92675 5.72734 3.66675 6.35567 3.66675 7.024V7.99984C3.66675 8.45984 4.03925 8.83317 4.50008 8.83317C4.96091 8.83317 5.33341 8.45984 5.33341 7.99984H7.83341C8.75258 7.99984 9.50008 7.25234 9.50008 6.33317V3.83317H15.3334V7.99984C15.3334 8.45984 15.7059 8.83317 16.1667 8.83317C16.6276 8.83317 17.0001 8.45984 17.0001 7.99984V3.83317C17.0001 2.914 16.2776 2.1665 15.3884 2.1665ZM7.83341 6.33317H5.67841L7.83341 4.17817V6.33317Z" fill="white"/>
  <path d="M4.50008 15.4998C4.96091 15.4998 5.33341 15.1265 5.33341 14.6665V13.8332H5.75008C6.89925 13.8332 7.83341 12.8982 7.83341 11.7498C7.83341 10.6015 6.89925 9.6665 5.75008 9.6665H4.50008C4.03925 9.6665 3.66675 10.0398 3.66675 10.4998V14.6665C3.66675 15.1265 4.03925 15.4998 4.50008 15.4998ZM5.33341 11.3332H5.75008C5.97925 11.3332 6.16675 11.5198 6.16675 11.7498C6.16675 11.9798 5.97925 12.1665 5.75008 12.1665H5.33341V11.3332Z" fill="white"/>
  <path d="M10.3334 14.6665V13.8332H10.7501C11.8992 13.8332 12.8334 12.8982 12.8334 11.7498C12.8334 10.6015 11.8992 9.6665 10.7501 9.6665H9.50008C9.03925 9.6665 8.66675 10.0398 8.66675 10.4998V14.6665C8.66675 15.1265 9.03925 15.4998 9.50008 15.4998C9.96091 15.4998 10.3334 15.1265 10.3334 14.6665ZM10.3334 11.3332H10.7501C10.9792 11.3332 11.1667 11.5198 11.1667 11.7498C11.1667 11.9798 10.9792 12.1665 10.7501 12.1665H10.3334V11.3332Z" fill="white"/>
  <path d="M16.1667 9.6665H14.5001C14.0392 9.6665 13.6667 10.0398 13.6667 10.4998C13.6667 10.9598 14.0392 11.3332 14.5001 11.3332V14.6665C14.5001 15.1265 14.8726 15.4998 15.3334 15.4998C15.7942 15.4998 16.1667 15.1265 16.1667 14.6665V11.3332C16.6276 11.3332 17.0001 10.9598 17.0001 10.4998C17.0001 10.0398 16.6276 9.6665 16.1667 9.6665Z" fill="white"/>
</svg>