<svg xmlns="http://www.w3.org/2000/svg" width="21" height="20" viewBox="0 0 21 20" fill="none">
  <path d="M17.3335 4.16699H4.00016C3.55814 4.16699 3.13421 4.34259 2.82165 4.65515C2.50909 4.96771 2.3335 5.39163 2.3335 5.83366V14.167C2.3335 14.609 2.50909 15.0329 2.82165 15.3455C3.13421 15.6581 3.55814 15.8337 4.00016 15.8337H17.3335C17.7755 15.8337 18.1994 15.6581 18.512 15.3455C18.8246 15.0329 19.0002 14.609 19.0002 14.167V5.83366C19.0002 5.39163 18.8246 4.96771 18.512 4.65515C18.1994 4.34259 17.7755 4.16699 17.3335 4.16699ZM17.3335 10.8337H11.5002V9.16699H17.3335V10.8337ZM4.00016 5.83366H17.3335V7.50033H4.00016V5.83366ZM9.8335 9.16699V10.8337H4.00016V9.16699H9.8335ZM4.00016 12.5003H9.8335V14.167H4.00016V12.5003ZM11.5002 14.167V12.5003H17.3335V14.167H11.5002Z" fill="url(#paint0_linear_62_29028)"/>
  <defs>
    <linearGradient id="paint0_linear_62_29028" x1="-0.711376" y1="3.10639" x2="13.2905" y2="-1.29816" gradientUnits="userSpaceOnUse">
      <stop stop-color="#40FFD9"/>
      <stop offset="0.404452" stop-color="#64BCFF"/>
      <stop offset="0.95" stop-color="#40FFD9"/>
    </linearGradient>
  </defs>
</svg>