<svg xmlns="http://www.w3.org/2000/svg" width="21" height="21" viewBox="0 0 21 21" fill="none">
  <path d="M17.3333 4.6665H3.99992C3.55789 4.6665 3.13397 4.8421 2.82141 5.15466C2.50885 5.46722 2.33325 5.89114 2.33325 6.33317V14.6665C2.33325 15.1085 2.50885 15.5325 2.82141 15.845C3.13397 16.1576 3.55789 16.3332 3.99992 16.3332H17.3333C17.7753 16.3332 18.1992 16.1576 18.5118 15.845C18.8243 15.5325 18.9999 15.1085 18.9999 14.6665V6.33317C18.9999 5.89114 18.8243 5.46722 18.5118 5.15466C18.1992 4.8421 17.7753 4.6665 17.3333 4.6665ZM17.3333 11.3332H11.4999V9.6665H17.3333V11.3332ZM3.99992 6.33317H17.3333V7.99984H3.99992V6.33317ZM9.83325 9.6665V11.3332H3.99992V9.6665H9.83325ZM3.99992 12.9998H9.83325V14.6665H3.99992V12.9998ZM11.4999 14.6665V12.9998H17.3333V14.6665H11.4999Z" fill="white"/>
</svg>