<svg xmlns="http://www.w3.org/2000/svg" width="24" height="24" viewBox="0 0 24 24" fill="none">
  <rect opacity="0.5" x="9.23413" y="3.70605" width="5.53135" height="16.5937" fill="url(#paint0_linear_62_29051)"/>
  <path fill-rule="evenodd" clip-rule="evenodd" d="M2.91846 6.31903C2.91846 4.44283 4.43942 2.92188 6.31561 2.92188H17.683C19.5592 2.92188 21.0802 4.44283 21.0802 6.31903V17.6864C21.0802 19.5626 19.5592 21.0836 17.683 21.0836H6.31561C4.43941 21.0836 2.91846 19.5626 2.91846 17.6864V6.31903ZM6.31561 4.48979C5.30535 4.48979 4.48638 5.30877 4.48638 6.31903V8.36774H8.36559V4.48979H6.31561ZM8.36559 10.1055H4.48638V13.9004H8.36559V10.1055ZM10.1034 10.1055L13.8969 10.1055V13.9004L10.1034 13.9004V10.1055ZM13.8969 8.36774L10.1034 8.36774V4.48979H13.8969V8.36774ZM15.6347 10.1055V13.9004H19.5123V10.1055H15.6347ZM19.5123 8.36774H15.6347V4.48979H17.683C18.6933 4.48979 19.5123 5.30877 19.5123 6.31903V8.36774ZM4.48638 17.6864V15.6381H8.36559V19.5157H6.31561C5.30535 19.5157 4.48638 18.6967 4.48638 17.6864ZM10.1034 19.5157V15.6381H13.8969V19.5157H10.1034ZM15.6347 19.5157V15.6381H19.5123V17.6864C19.5123 18.6967 18.6933 19.5157 17.683 19.5157H15.6347Z" fill="url(#paint1_linear_62_29051)"/>
  <defs>
    <linearGradient id="paint0_linear_62_29051" x1="7.02159" y1="-0.0275358" x2="19.9714" y2="3.43996" gradientUnits="userSpaceOnUse">
      <stop stop-color="#40FFD9"/>
      <stop offset="0.404452" stop-color="#64BCFF"/>
      <stop offset="0.95" stop-color="#40FFD9"/>
    </linearGradient>
    <linearGradient id="paint1_linear_62_29051" x1="-4.34623" y1="-1.16451" x2="23.3504" y2="21.0836" gradientUnits="userSpaceOnUse">
      <stop stop-color="#40FFD9"/>
      <stop offset="0.404452" stop-color="#64BCFF"/>
      <stop offset="0.95" stop-color="#40FFD9"/>
    </linearGradient>
  </defs>
</svg>