<svg xmlns="http://www.w3.org/2000/svg" width="24" height="25" viewBox="0 0 24 25" fill="none">
  <path fill-rule="evenodd" clip-rule="evenodd" d="M0.810791 6.40723C0.810791 4.75037 2.15394 3.40723 3.81079 3.40723H14.9936C16.6505 3.40723 17.9936 4.75037 17.9936 6.40723L17.9942 9.59473H20.7899C22.1154 9.59473 23.1899 10.6692 23.1899 11.9947V17.5861C23.1899 18.9116 22.1154 19.9861 20.7899 19.9861H19.9779L18.6306 21.3334C18.4618 21.5022 18.2329 21.597 17.9942 21.597C17.7555 21.597 17.5266 21.5022 17.3578 21.3334L16.0105 19.9861H12.2767C10.9512 19.9861 9.87671 18.9116 9.87671 17.5861V16.2943H7.9524L5.80455 18.4422L4.13996 16.2943H3.81079C2.15394 16.2943 0.810791 14.9512 0.810791 13.2943V6.40723ZM17.9936 13.2943V11.3947H20.7899C21.1213 11.3947 21.3899 11.6634 21.3899 11.9947V17.5861C21.3899 17.9175 21.1213 18.1861 20.7899 18.1861H19.6051C19.3664 18.1861 19.1375 18.281 18.9687 18.4497L17.9942 19.4242L17.0197 18.4497C16.8509 18.281 16.622 18.1861 16.3833 18.1861H12.2767C11.9453 18.1861 11.6767 17.9175 11.6767 17.5861V16.2943H14.9936C16.6505 16.2943 17.9936 14.9512 17.9936 13.2943ZM5.40806 9.09668C4.911 9.09668 4.50806 9.49962 4.50806 9.99668C4.50806 10.4937 4.911 10.8967 5.40806 10.8967H5.94502C6.44208 10.8967 6.84502 10.4937 6.84502 9.99668C6.84502 9.49962 6.44208 9.09668 5.94502 9.09668H5.40806ZM8.26685 9.99668C8.26685 9.49962 8.66979 9.09668 9.16685 9.09668H9.70381C10.2009 9.09668 10.6038 9.49962 10.6038 9.99668C10.6038 10.4937 10.2009 10.8967 9.70381 10.8967H9.16685C8.66979 10.8967 8.26685 10.4937 8.26685 9.99668ZM12.9256 9.09668C12.4286 9.09668 12.0256 9.49962 12.0256 9.99668C12.0256 10.4937 12.4286 10.8967 12.9256 10.8967H13.4626C13.9597 10.8967 14.3626 10.4937 14.3626 9.99668C14.3626 9.49962 13.9597 9.09668 13.4626 9.09668H12.9256Z" fill="url(#paint0_linear_69_29903)"/>
  <defs>
    <linearGradient id="paint0_linear_69_29903" x1="-8.14085" y1="-0.685477" x2="20.2648" y2="27.3873" gradientUnits="userSpaceOnUse">
      <stop stop-color="#40FFD9"/>
      <stop offset="0.404452" stop-color="#64BCFF"/>
      <stop offset="0.95" stop-color="#40FFD9"/>
    </linearGradient>
  </defs>
</svg>