<svg xmlns="http://www.w3.org/2000/svg" width="24" height="24" viewBox="0 0 24 24" fill="none">
  <path d="M4.42383 2.74219C3.38829 2.74219 2.54883 3.58165 2.54883 4.61719V8.51719C2.54883 9.55272 3.38829 10.3922 4.42383 10.3922H8.32383C9.35936 10.3922 10.1988 9.55272 10.1988 8.51719V4.61719C10.1988 3.58165 9.35936 2.74219 8.32383 2.74219H4.42383Z" fill="url(#paint0_linear_62_29058)"/>
  <path d="M21.7132 3.67963C22.0647 4.03111 22.0646 4.60096 21.7132 4.95242L17.2095 9.45591C16.8804 9.78504 16.3546 9.80889 15.997 9.5109L13.0006 7.01393C12.6188 6.69572 12.5672 6.12822 12.8854 5.74637C13.2036 5.36452 13.7711 5.31292 14.1529 5.63113L16.5179 7.60195L20.4404 3.67961C20.7919 3.32814 21.3617 3.32815 21.7132 3.67963Z" fill="url(#paint1_linear_62_29058)"/>
  <path d="M20.9632 13.7988C21.3146 14.1502 21.3146 14.7201 20.9632 15.0716L18.5996 17.4352L20.9632 19.7988C21.3146 20.1502 21.3146 20.7201 20.9632 21.0716C20.6117 21.423 20.0418 21.423 19.6904 21.0716L17.3268 18.7079L14.9632 21.0716C14.6117 21.423 14.0418 21.423 13.6904 21.0716C13.3389 20.7201 13.3389 20.1502 13.6904 19.7988L16.054 17.4352L13.6904 15.0716C13.3389 14.7201 13.3389 14.1502 13.6904 13.7988C14.0418 13.4473 14.6117 13.4473 14.9632 13.7988L17.3268 16.1624L19.6904 13.7988C20.0418 13.4473 20.6117 13.4473 20.9632 13.7988Z" fill="url(#paint2_linear_62_29058)"/>
  <path d="M4.42383 13.6055C3.38829 13.6055 2.54883 14.4449 2.54883 15.4805V19.3805C2.54883 20.416 3.38829 21.2555 4.42383 21.2555H8.32383C9.35936 21.2555 10.1988 20.416 10.1988 19.3805V15.4805C10.1988 14.4449 9.35936 13.6055 8.32383 13.6055H4.42383Z" fill="url(#paint3_linear_62_29058)"/>
  <defs>
    <linearGradient id="paint0_linear_62_29058" x1="-5.22235" y1="-1.44123" x2="23.3753" y2="22.5623" gradientUnits="userSpaceOnUse">
      <stop stop-color="#40FFD9"/>
      <stop offset="0.404452" stop-color="#64BCFF"/>
      <stop offset="0.95" stop-color="#40FFD9"/>
    </linearGradient>
    <linearGradient id="paint1_linear_62_29058" x1="-5.22235" y1="-1.44123" x2="23.3753" y2="22.5623" gradientUnits="userSpaceOnUse">
      <stop stop-color="#40FFD9"/>
      <stop offset="0.404452" stop-color="#64BCFF"/>
      <stop offset="0.95" stop-color="#40FFD9"/>
    </linearGradient>
    <linearGradient id="paint2_linear_62_29058" x1="-5.22235" y1="-1.44123" x2="23.3753" y2="22.5623" gradientUnits="userSpaceOnUse">
      <stop stop-color="#40FFD9"/>
      <stop offset="0.404452" stop-color="#64BCFF"/>
      <stop offset="0.95" stop-color="#40FFD9"/>
    </linearGradient>
    <linearGradient id="paint3_linear_62_29058" x1="-5.22235" y1="-1.44123" x2="23.3753" y2="22.5623" gradientUnits="userSpaceOnUse">
      <stop stop-color="#40FFD9"/>
      <stop offset="0.404452" stop-color="#64BCFF"/>
      <stop offset="0.95" stop-color="#40FFD9"/>
    </linearGradient>
  </defs>
</svg>