<svg xmlns="http://www.w3.org/2000/svg" width="24" height="24" viewBox="0 0 24 24" fill="none">
  <path d="M18.977 3.783C18.9276 3.56077 18.8039 3.36205 18.6262 3.21968C18.4486 3.07731 18.2277 2.99981 18 3H6C5.77234 2.99981 5.55144 3.07731 5.37379 3.21968C5.19615 3.36205 5.0724 3.56077 5.023 3.783L3.2 12H7.439C8.0217 12.0003 8.59162 12.1708 9.07874 12.4906C9.56586 12.8104 9.94897 13.2655 10.181 13.8C10.3329 14.1567 10.5863 14.4609 10.9097 14.6747C11.2331 14.8886 11.6123 15.0026 12 15.0026C12.3877 15.0026 12.7669 14.8886 13.0903 14.6747C13.4137 14.4609 13.6671 14.1567 13.819 13.8C14.051 13.2655 14.4341 12.8104 14.9213 12.4906C15.4084 12.1708 15.9783 12.0003 16.561 12H20.8L18.977 3.783ZM9 5H15C15.2652 5 15.5196 5.10536 15.7071 5.29289C15.8946 5.48043 16 5.73478 16 6C16 6.26522 15.8946 6.51957 15.7071 6.70711C15.5196 6.89464 15.2652 7 15 7H9C8.73478 7 8.48043 6.89464 8.29289 6.70711C8.10536 6.51957 8 6.26522 8 6C8 5.73478 8.10536 5.48043 8.29289 5.29289C8.48043 5.10536 8.73478 5 9 5ZM16 10H8C7.73478 10 7.48043 9.89464 7.29289 9.70711C7.10536 9.51957 7 9.26522 7 9C7 8.73478 7.10536 8.48043 7.29289 8.29289C7.48043 8.10536 7.73478 8 8 8H16C16.2652 8 16.5196 8.10536 16.7071 8.29289C16.8946 8.48043 17 8.73478 17 9C17 9.26522 16.8946 9.51957 16.7071 9.70711C16.5196 9.89464 16.2652 10 16 10Z" fill="url(#paint0_linear_62_29083)"/>
  <path d="M4 21H20C20.2652 21 20.5196 20.8946 20.7071 20.7071C20.8946 20.5196 21 20.2652 21 20V14H16.561C16.3676 14.0005 16.1786 14.0576 16.0173 14.1642C15.8559 14.2708 15.7293 14.4223 15.653 14.6C15.3454 15.3136 14.8355 15.9214 14.1863 16.3485C13.5371 16.7756 12.7771 17.0032 12 17.0032C11.2229 17.0032 10.4629 16.7756 9.8137 16.3485C9.16452 15.9214 8.65463 15.3136 8.347 14.6C8.2707 14.4223 8.14408 14.2708 7.98274 14.1642C7.82139 14.0576 7.63238 14.0005 7.439 14H3V20C3 20.2652 3.10536 20.5196 3.29289 20.7071C3.48043 20.8946 3.73478 21 4 21Z" fill="url(#paint1_linear_62_29083)"/>
  <defs>
    <linearGradient id="paint0_linear_62_29083" x1="-4.2" y1="-1.05" x2="23.25" y2="21" gradientUnits="userSpaceOnUse">
      <stop stop-color="#40FFD9"/>
      <stop offset="0.404452" stop-color="#64BCFF"/>
      <stop offset="0.95" stop-color="#40FFD9"/>
    </linearGradient>
    <linearGradient id="paint1_linear_62_29083" x1="-4.2" y1="-1.05" x2="23.25" y2="21" gradientUnits="userSpaceOnUse">
      <stop stop-color="#40FFD9"/>
      <stop offset="0.404452" stop-color="#64BCFF"/>
      <stop offset="0.95" stop-color="#40FFD9"/>
    </linearGradient>
  </defs>
</svg>