<svg xmlns="http://www.w3.org/2000/svg" width="24" height="24" viewBox="0 0 24 24" fill="none">
  <path d="M20.7816 9.17659C20.5936 9.00108 20.4453 8.78738 20.3468 8.54985C20.2484 8.31232 20.2019 8.05645 20.2105 7.79946C20.227 7.26941 20.1347 6.74159 19.9394 6.24855C19.744 5.75551 19.4497 5.30769 19.0746 4.93269C18.7012 4.55636 18.2537 4.26166 17.7604 4.06725C17.2672 3.87284 16.7389 3.78297 16.209 3.80333C15.9521 3.80658 15.6972 3.75714 15.4601 3.65807C15.223 3.55899 15.0087 3.41238 14.8305 3.22729C14.4687 2.84 14.0311 2.5312 13.5449 2.32007C13.0587 2.10895 12.5342 2 12.0041 2C11.474 2 10.9496 2.10895 10.4634 2.32007C9.9772 2.5312 9.53961 2.84 9.1778 3.22729C8.99904 3.41139 8.78457 3.55707 8.54753 3.65541C8.31048 3.75375 8.05585 3.80268 7.79923 3.7992C7.26876 3.77783 6.73969 3.86764 6.246 4.06285C5.75232 4.25806 5.30494 4.55435 4.93262 4.93269C4.55846 5.30812 4.26511 5.75614 4.07065 6.24916C3.87619 6.74218 3.78472 7.26978 3.80188 7.79946C3.81 8.05676 3.76287 8.31282 3.66365 8.55037C3.56443 8.78792 3.41544 9.00146 3.2267 9.17659C2.83956 9.53845 2.53092 9.97596 2.3199 10.462C2.10888 10.948 2 11.4722 2 12.0021C2 12.5319 2.10888 13.0561 2.3199 13.5421C2.53092 14.0282 2.83956 14.4657 3.2267 14.8275C3.41469 15.003 3.56291 15.2167 3.66141 15.4543C3.75991 15.6918 3.8064 15.9477 3.79775 16.2047C3.77946 16.7343 3.87031 17.262 4.06465 17.755C4.259 18.2481 4.55269 18.6959 4.92748 19.0707C5.30227 19.4454 5.75014 19.7392 6.24328 19.9336C6.73642 20.128 7.26428 20.219 7.79406 20.2008C8.05115 20.1951 8.30661 20.243 8.54414 20.3414C8.78168 20.4399 8.99608 20.5868 9.17367 20.7727C9.53548 21.16 9.97307 21.4688 10.4593 21.6799C10.9455 21.8911 11.4699 22 12 22C12.5301 22 13.0545 21.8911 13.5407 21.6799C14.0269 21.4688 14.4645 21.16 14.8263 20.7727C15.0035 20.5865 15.2177 20.4394 15.4551 20.3409C15.6925 20.2424 15.9479 20.1947 16.2049 20.2008C16.7348 20.2191 17.2628 20.1282 17.756 19.9339C18.2493 19.7395 18.6973 19.4459 19.0722 19.0711C19.4471 18.6963 19.7409 18.2484 19.9353 17.7553C20.1297 17.2622 20.2205 16.7344 20.2022 16.2047C20.1936 15.9477 20.2401 15.6918 20.3386 15.4543C20.4371 15.2167 20.5853 15.003 20.7733 14.8275C21.1604 14.4657 21.4691 14.0282 21.6801 13.5421C21.8911 13.0561 22 12.5319 22 12.0021C22 11.4722 21.8911 10.948 21.6801 10.462C21.4691 9.97596 21.1604 9.53845 20.7733 9.17659H20.7816ZM9.63629 15.8289C9.44153 16.0169 9.18069 16.121 8.90993 16.1186C8.63918 16.1163 8.38018 16.0077 8.18872 15.8163C7.99726 15.6249 7.88866 15.366 7.88631 15.0953C7.88395 14.8247 7.98804 14.5639 8.17614 14.3692L14.372 8.17523C14.5667 7.98718 14.8276 7.88313 15.0983 7.88548C15.3691 7.88784 15.6281 7.9964 15.8195 8.18781C16.011 8.37921 16.1196 8.63813 16.122 8.9088C16.1243 9.17947 16.0202 9.44024 15.8321 9.63494L9.63629 15.8289ZM15.102 15.6152C15.102 15.9215 15.0112 16.2209 14.841 16.4755C14.6708 16.7301 14.4289 16.9286 14.1459 17.0458C13.8628 17.163 13.5514 17.1937 13.2509 17.1339C12.9504 17.0742 12.6744 16.9267 12.4578 16.7102C12.2412 16.4936 12.0937 16.2177 12.0339 15.9173C11.9741 15.6169 12.0048 15.3056 12.122 15.0226C12.2393 14.7397 12.4378 14.4978 12.6925 14.3277C12.9473 14.1575 13.2467 14.0667 13.5531 14.0667C13.9639 14.0667 14.3579 14.2299 14.6484 14.5203C14.9389 14.8107 15.102 15.2045 15.102 15.6152ZM8.90622 8.38892C8.90622 8.08266 8.99706 7.78328 9.16726 7.52863C9.33746 7.27398 9.57938 7.07551 9.86241 6.9583C10.1454 6.8411 10.4569 6.81044 10.7574 6.87019C11.0578 6.92993 11.3338 7.07741 11.5505 7.29397C11.7671 7.51053 11.9146 7.78645 11.9744 8.08683C12.0341 8.3872 12.0035 8.69855 11.8862 8.9815C11.769 9.26445 11.5705 9.50629 11.3157 9.67644C11.061 9.84659 10.7615 9.93741 10.4552 9.93741C10.0444 9.93741 9.65038 9.77427 9.35989 9.48387C9.06941 9.19347 8.90622 8.79961 8.90622 8.38892Z" fill="url(#paint0_linear_62_29046)"/>
  <defs>
    <linearGradient id="paint0_linear_62_29046" x1="-6" y1="-2.5" x2="24.5" y2="22" gradientUnits="userSpaceOnUse">
      <stop stop-color="#40FFD9"/>
      <stop offset="0.404452" stop-color="#64BCFF"/>
      <stop offset="0.95" stop-color="#40FFD9"/>
    </linearGradient>
  </defs>
</svg>