<svg xmlns="http://www.w3.org/2000/svg" width="24" height="25" viewBox="0 0 24 25" fill="none">
  <path fill-rule="evenodd" clip-rule="evenodd" d="M2.94971 5.85009C2.94971 4.19324 4.29285 2.8501 5.94971 2.8501H18.0497C19.7066 2.8501 21.0497 4.19324 21.0497 5.8501V19.1501C21.0497 20.807 19.7066 22.1501 18.0497 22.1501H5.94971C4.29285 22.1501 2.94971 20.807 2.94971 19.1501V5.85009ZM6.60059 7.75596C6.60059 7.2589 7.00353 6.85596 7.50059 6.85596H16.5006C16.9976 6.85596 17.4006 7.2589 17.4006 7.75596C17.4006 8.25301 16.9976 8.65596 16.5006 8.65596H7.50059C7.00353 8.65596 6.60059 8.25301 6.60059 7.75596ZM6.60059 17.4594C6.60059 16.9623 7.00353 16.5594 7.50059 16.5594H16.5006C16.9976 16.5594 17.4006 16.9623 17.4006 17.4594C17.4006 17.9564 16.9976 18.3594 16.5006 18.3594H7.50059C7.00353 18.3594 6.60059 17.9564 6.60059 17.4594Z" fill="url(#paint0_linear_69_29872)"/>
  <defs>
    <linearGradient id="paint0_linear_69_29872" x1="-4.29029" y1="-1.4924" x2="24.6812" y2="20.3328" gradientUnits="userSpaceOnUse">
      <stop stop-color="#40FFD9"/>
      <stop offset="0.404452" stop-color="#64BCFF"/>
      <stop offset="0.95" stop-color="#40FFD9"/>
    </linearGradient>
  </defs>
</svg>