<svg xmlns="http://www.w3.org/2000/svg" width="24" height="25" viewBox="0 0 24 25" fill="none">
  <path d="M16.1459 11.269C16.6023 11.0865 17.1203 11.3085 17.3029 11.7649L18.1167 13.7995C18.1949 13.9949 18.2013 14.2118 18.1347 14.4115L17.3209 16.853C17.1654 17.3194 16.6613 17.5714 16.195 17.416C15.7286 17.2605 15.4765 16.7564 15.632 16.2901L16.3427 14.1579L15.65 12.426C15.4674 11.9696 15.6894 11.4516 16.1459 11.269Z" fill="url(#paint0_linear_69_29976)"/>
  <path d="M8.35053 12.426C8.5331 11.9696 8.31109 11.4516 7.85466 11.269C7.39823 11.0865 6.88022 11.3085 6.69765 11.7649L5.88382 13.7995C5.80563 13.9949 5.79925 14.2118 5.86583 14.4115L6.67966 16.853C6.83512 17.3194 7.3392 17.5714 7.80556 17.416C8.27193 17.2605 8.52397 16.7564 8.36851 16.2901L7.65779 14.1579L8.35053 12.426Z" fill="url(#paint1_linear_69_29976)"/>
  <path d="M9.08416 11.8901C9.08416 11.3985 9.48267 11 9.97426 11H14.0283C14.5199 11 14.9184 11.3985 14.9184 11.8901C14.9184 12.3817 14.5199 12.7802 14.0283 12.7802H12.8888V16.7794C12.8888 17.271 12.4903 17.6695 11.9987 17.6695C11.5071 17.6695 11.1086 17.271 11.1086 16.7794V12.7802H9.97426C9.48267 12.7802 9.08416 12.3817 9.08416 11.8901Z" fill="url(#paint2_linear_69_29976)"/>
  <path fill-rule="evenodd" clip-rule="evenodd" d="M4.75227 4.20947L19.2489 4.21066C20.7235 4.21078 21.919 5.40628 21.919 6.88097V18.1201C21.919 19.5948 20.7234 20.7904 19.2486 20.7904H4.75185C3.27706 20.7904 2.08152 19.5948 2.08154 18.12L2.08174 6.87974C2.08177 5.4049 3.27743 4.20935 4.75227 4.20947ZM3.8619 9.45969L3.86175 18.12C3.86174 18.6116 4.26026 19.0102 4.75185 19.0102H19.2486C19.7402 19.0102 20.1387 18.6116 20.1387 18.1201V9.45969H3.8619Z" fill="url(#paint3_linear_69_29976)"/>
  <defs>
    <linearGradient id="paint0_linear_69_29976" x1="-5.85342" y1="0.478773" x2="20.0211" y2="25.3453" gradientUnits="userSpaceOnUse">
      <stop stop-color="#40FFD9"/>
      <stop offset="0.404452" stop-color="#64BCFF"/>
      <stop offset="0.95" stop-color="#40FFD9"/>
    </linearGradient>
    <linearGradient id="paint1_linear_69_29976" x1="-5.85342" y1="0.478773" x2="20.0211" y2="25.3453" gradientUnits="userSpaceOnUse">
      <stop stop-color="#40FFD9"/>
      <stop offset="0.404452" stop-color="#64BCFF"/>
      <stop offset="0.95" stop-color="#40FFD9"/>
    </linearGradient>
    <linearGradient id="paint2_linear_69_29976" x1="-5.85342" y1="0.478773" x2="20.0211" y2="25.3453" gradientUnits="userSpaceOnUse">
      <stop stop-color="#40FFD9"/>
      <stop offset="0.404452" stop-color="#64BCFF"/>
      <stop offset="0.95" stop-color="#40FFD9"/>
    </linearGradient>
    <linearGradient id="paint3_linear_69_29976" x1="-5.85342" y1="0.478773" x2="20.0211" y2="25.3453" gradientUnits="userSpaceOnUse">
      <stop stop-color="#40FFD9"/>
      <stop offset="0.404452" stop-color="#64BCFF"/>
      <stop offset="0.95" stop-color="#40FFD9"/>
    </linearGradient>
  </defs>
</svg>