<svg xmlns="http://www.w3.org/2000/svg" width="24" height="25" viewBox="0 0 24 25" fill="none">
  <path d="M9.42798 3.35645C8.79664 3.35645 8.28484 3.86824 8.28484 4.49958V6.21429C8.28484 6.84562 8.79664 7.35742 9.42798 7.35742H20.6688C21.3002 7.35742 21.812 6.84562 21.812 6.21429V4.49958C21.812 3.86825 21.3002 3.35645 20.6688 3.35645H9.42798Z" fill="url(#paint0_linear_69_29891)"/>
  <path d="M9.42798 10.501C8.79664 10.501 8.28484 11.0128 8.28484 11.6442V13.3589C8.28484 13.9902 8.79665 14.502 9.42798 14.502H20.6688C21.3002 14.502 21.812 13.9902 21.812 13.3589V11.6442C21.812 11.0128 21.3002 10.501 20.6688 10.501H9.42798Z" fill="url(#paint1_linear_69_29891)"/>
  <path d="M9.42798 17.6457C8.79664 17.6457 8.28484 18.1575 8.28484 18.7888V20.5035C8.28484 21.1348 8.79665 21.6466 9.42798 21.6466H20.6688C21.3002 21.6466 21.812 21.1348 21.812 20.5035V18.7888C21.812 18.1575 21.3002 17.6457 20.6688 17.6457H9.42798Z" fill="url(#paint2_linear_69_29891)"/>
  <path d="M4.09297 3.4532C3.04074 3.4532 2.18774 4.30619 2.18774 5.35842C2.18774 6.41065 3.04074 7.26365 4.09297 7.26365C5.1452 7.26365 5.9982 6.41065 5.9982 5.35842C5.9982 4.30619 5.1452 3.4532 4.09297 3.4532Z" fill="url(#paint3_linear_69_29891)"/>
  <path d="M4.09297 10.5978C3.04074 10.5978 2.18774 11.4508 2.18774 12.503C2.18774 13.5553 3.04074 14.4083 4.09297 14.4083C5.1452 14.4083 5.9982 13.5553 5.9982 12.503C5.9982 11.4508 5.1452 10.5978 4.09297 10.5978Z" fill="url(#paint4_linear_69_29891)"/>
  <path d="M4.09297 17.7424C3.04074 17.7424 2.18774 18.5954 2.18774 19.6476C2.18774 20.6999 3.04074 21.5529 4.09297 21.5529C5.1452 21.5529 5.9982 20.6999 5.9982 19.6476C5.9982 18.5954 5.1452 17.7424 4.09297 17.7424Z" fill="url(#paint5_linear_69_29891)"/>
  <defs>
    <linearGradient id="paint0_linear_69_29891" x1="-5.66194" y1="-0.758847" x2="22.5897" y2="23.5904" gradientUnits="userSpaceOnUse">
      <stop stop-color="#40FFD9"/>
      <stop offset="0.404452" stop-color="#64BCFF"/>
      <stop offset="0.95" stop-color="#40FFD9"/>
    </linearGradient>
    <linearGradient id="paint1_linear_69_29891" x1="-5.66194" y1="-0.758847" x2="22.5897" y2="23.5904" gradientUnits="userSpaceOnUse">
      <stop stop-color="#40FFD9"/>
      <stop offset="0.404452" stop-color="#64BCFF"/>
      <stop offset="0.95" stop-color="#40FFD9"/>
    </linearGradient>
    <linearGradient id="paint2_linear_69_29891" x1="-5.66194" y1="-0.758847" x2="22.5897" y2="23.5904" gradientUnits="userSpaceOnUse">
      <stop stop-color="#40FFD9"/>
      <stop offset="0.404452" stop-color="#64BCFF"/>
      <stop offset="0.95" stop-color="#40FFD9"/>
    </linearGradient>
    <linearGradient id="paint3_linear_69_29891" x1="-5.66194" y1="-0.758847" x2="22.5897" y2="23.5904" gradientUnits="userSpaceOnUse">
      <stop stop-color="#40FFD9"/>
      <stop offset="0.404452" stop-color="#64BCFF"/>
      <stop offset="0.95" stop-color="#40FFD9"/>
    </linearGradient>
    <linearGradient id="paint4_linear_69_29891" x1="-5.66194" y1="-0.758847" x2="22.5897" y2="23.5904" gradientUnits="userSpaceOnUse">
      <stop stop-color="#40FFD9"/>
      <stop offset="0.404452" stop-color="#64BCFF"/>
      <stop offset="0.95" stop-color="#40FFD9"/>
    </linearGradient>
    <linearGradient id="paint5_linear_69_29891" x1="-5.66194" y1="-0.758847" x2="22.5897" y2="23.5904" gradientUnits="userSpaceOnUse">
      <stop stop-color="#40FFD9"/>
      <stop offset="0.404452" stop-color="#64BCFF"/>
      <stop offset="0.95" stop-color="#40FFD9"/>
    </linearGradient>
  </defs>
</svg>