<svg xmlns="http://www.w3.org/2000/svg" width="24" height="24" viewBox="0 0 24 24" fill="none">
  <path d="M18.6372 9.01399H16.9779V6.52504C16.9779 5.33684 16.4534 4.1973 15.5199 3.35712C14.5864 2.51693 13.3202 2.04492 12 2.04492C10.6798 2.04492 9.41363 2.51693 8.48009 3.35712C7.54655 4.1973 7.02209 5.33684 7.02209 6.52504V9.01399H5.36279C4.77603 9.01399 4.21329 9.22377 3.79839 9.59719C3.38348 9.9706 3.15039 10.4771 3.15039 11.0052V19.9654C3.15039 20.4935 3.38348 20.9999 3.79839 21.3733C4.21329 21.7468 4.77603 21.9565 5.36279 21.9565H18.6372C19.224 21.9565 19.7867 21.7468 20.2016 21.3733C20.6165 20.9999 20.8496 20.4935 20.8496 19.9654V11.0052C20.8496 10.4771 20.6165 9.9706 20.2016 9.59719C19.7867 9.22377 19.224 9.01399 18.6372 9.01399ZM13.1062 16.9786C13.1062 17.2427 12.9897 17.4959 12.7822 17.6826C12.5747 17.8693 12.2934 17.9742 12 17.9742C11.7066 17.9742 11.4253 17.8693 11.2178 17.6826C11.0103 17.4959 10.8938 17.2427 10.8938 16.9786V13.9919C10.8938 13.7278 11.0103 13.4746 11.2178 13.2879C11.4253 13.1012 11.7066 12.9963 12 12.9963C12.2934 12.9963 12.5747 13.1012 12.7822 13.2879C12.9897 13.4746 13.1062 13.7278 13.1062 13.9919V16.9786ZM14.7655 9.01399H9.2345V6.52504C9.2345 5.86493 9.52586 5.23185 10.0445 4.76508C10.5631 4.29831 11.2665 4.03608 12 4.03608C12.7335 4.03608 13.4369 4.29831 13.9555 4.76508C14.4741 5.23185 14.7655 5.86493 14.7655 6.52504V9.01399Z" fill="url(#paint0_linear_62_29064)"/>
  <defs>
    <linearGradient id="paint0_linear_62_29064" x1="-3.9293" y1="-2.43519" x2="25.483" y2="18.5659" gradientUnits="userSpaceOnUse">
      <stop stop-color="#40FFD9"/>
      <stop offset="0.404452" stop-color="#64BCFF"/>
      <stop offset="0.95" stop-color="#40FFD9"/>
    </linearGradient>
  </defs>
</svg>