<svg xmlns="http://www.w3.org/2000/svg" width="24" height="25" viewBox="0 0 24 25" fill="none">
  <path d="M20 5.5H4C3.46957 5.5 2.96086 5.71071 2.58579 6.08579C2.21071 6.46086 2 6.96957 2 7.5V17.5C2 18.0304 2.21071 18.5391 2.58579 18.9142C2.96086 19.2893 3.46957 19.5 4 19.5H20C20.5304 19.5 21.0391 19.2893 21.4142 18.9142C21.7893 18.5391 22 18.0304 22 17.5V7.5C22 6.96957 21.7893 6.46086 21.4142 6.08579C21.0391 5.71071 20.5304 5.5 20 5.5ZM4 11.5H11V17.5H4V11.5ZM13 17.5V11.5H20V17.5H13Z" fill="url(#paint0_linear_69_30008)"/>
  <defs>
    <linearGradient id="paint0_linear_69_30008" x1="-6" y1="2.35" x2="15.6589" y2="27.2044" gradientUnits="userSpaceOnUse">
      <stop stop-color="#40FFD9"/>
      <stop offset="0.404452" stop-color="#64BCFF"/>
      <stop offset="0.95" stop-color="#40FFD9"/>
    </linearGradient>
  </defs>
</svg>