<svg xmlns="http://www.w3.org/2000/svg" width="24" height="25" viewBox="0 0 24 25" fill="none">
  <path d="M9.54588 15.8932C9.54588 14.5376 10.6447 13.4387 12.0002 13.4385V15.3446C12.0002 15.6487 12.2467 15.8952 12.5508 15.8952H14.4553C14.4542 17.2499 13.3556 18.3479 12.0006 18.3479C10.6449 18.3479 9.54588 17.2489 9.54588 15.8932Z" fill="url(#paint0_linear_69_29995)"/>
  <path fill-rule="evenodd" clip-rule="evenodd" d="M11.0002 2.5H18.0662C18.5877 2.50947 19.0841 2.72532 19.4466 3.10024C19.8092 3.47515 20.0083 3.97853 20.0002 4.5V20.5C20.0083 21.0215 19.8092 21.5248 19.4466 21.8998C19.0841 22.2747 18.5877 22.4905 18.0662 22.5H5.93423C5.41279 22.4905 4.91637 22.2747 4.55383 21.8998C4.19129 21.5248 3.99221 21.0215 4.00023 20.5V9.5H9.00023C9.53067 9.5 10.0394 9.28929 10.4144 8.91421C10.7895 8.53914 11.0002 8.03043 11.0002 7.5V2.5ZM7.67383 15.8932C7.67383 13.5036 9.61098 11.5664 12.0006 11.5664C14.3902 11.5664 16.3273 13.5036 16.3273 15.8932C16.3273 18.2828 14.3902 20.2199 12.0006 20.2199C9.61098 20.2199 7.67383 18.2828 7.67383 15.8932Z" fill="url(#paint1_linear_69_29995)"/>
  <path d="M9.00023 2.63V7.5H4.13023C4.26604 7.01239 4.52381 6.5674 4.87923 6.207L7.70723 3.379C8.06763 3.02358 8.51262 2.76581 9.00023 2.63Z" fill="url(#paint2_linear_69_29995)"/>
  <defs>
    <linearGradient id="paint0_linear_69_29995" x1="-2.40019" y1="-2" x2="26.0115" y2="16.2586" gradientUnits="userSpaceOnUse">
      <stop stop-color="#40FFD9"/>
      <stop offset="0.404452" stop-color="#64BCFF"/>
      <stop offset="0.95" stop-color="#40FFD9"/>
    </linearGradient>
    <linearGradient id="paint1_linear_69_29995" x1="-2.40019" y1="-2" x2="26.0115" y2="16.2586" gradientUnits="userSpaceOnUse">
      <stop stop-color="#40FFD9"/>
      <stop offset="0.404452" stop-color="#64BCFF"/>
      <stop offset="0.95" stop-color="#40FFD9"/>
    </linearGradient>
    <linearGradient id="paint2_linear_69_29995" x1="-2.40019" y1="-2" x2="26.0115" y2="16.2586" gradientUnits="userSpaceOnUse">
      <stop stop-color="#40FFD9"/>
      <stop offset="0.404452" stop-color="#64BCFF"/>
      <stop offset="0.95" stop-color="#40FFD9"/>
    </linearGradient>
  </defs>
</svg>