<svg xmlns="http://www.w3.org/2000/svg" width="24" height="25" viewBox="0 0 24 25" fill="none">
  <path fill-rule="evenodd" clip-rule="evenodd" d="M11.0002 2.5H18.0662C18.5877 2.50947 19.0841 2.72532 19.4466 3.10024C19.8092 3.47515 20.0083 3.97853 20.0002 4.5V20.5C20.0083 21.0215 19.8092 21.5248 19.4466 21.8998C19.0841 22.2747 18.5877 22.4905 18.0662 22.5H5.93423C5.41279 22.4905 4.91637 22.2747 4.55383 21.8998C4.19129 21.5248 3.99221 21.0215 4.00023 20.5V9.5H9.00023C9.53067 9.5 10.0394 9.28929 10.4144 8.91421C10.7895 8.53914 11.0002 8.03043 11.0002 7.5V2.5ZM9.63228 12.2324C9.98375 12.5838 9.98375 13.1537 9.63227 13.5052C9.0519 14.0855 8.69453 14.8847 8.69453 15.7691C8.69453 16.6534 9.0519 17.4526 9.63228 18.033C9.98375 18.3844 9.98375 18.9543 9.63227 19.3058C9.2808 19.6572 8.71095 19.6572 8.35948 19.3057C7.45535 18.4016 6.89453 17.15 6.89453 15.7691C6.89453 14.3881 7.45534 13.1365 8.35949 12.2323C8.71096 11.8809 9.28081 11.8809 9.63228 12.2324ZM14.3677 12.2324C14.0162 12.5838 14.0163 13.1537 14.3677 13.5052C14.9481 14.0855 15.3055 14.8847 15.3055 15.7691C15.3055 16.6534 14.9481 17.4526 14.3677 18.033C14.0163 18.3844 14.0163 18.9543 14.3677 19.3058C14.7192 19.6572 15.289 19.6572 15.6405 19.3057C16.5447 18.4016 17.1055 17.15 17.1055 15.7691C17.1055 14.3881 16.5447 13.1365 15.6405 12.2323C15.289 11.8809 14.7192 11.8809 14.3677 12.2324ZM9.8252 15.7672C9.8252 15.2701 10.2281 14.8672 10.7252 14.8672H13.2758C13.7729 14.8672 14.1758 15.2701 14.1758 15.7672C14.1758 16.2642 13.7729 16.6672 13.2758 16.6672H10.7252C10.2281 16.6672 9.8252 16.2642 9.8252 15.7672Z" fill="url(#paint0_linear_69_29909)"/>
  <path d="M9.00023 2.63V7.5H4.13023C4.26604 7.01239 4.52381 6.5674 4.87923 6.207L7.70723 3.379C8.06763 3.02358 8.51262 2.76581 9.00023 2.63Z" fill="url(#paint1_linear_69_29909)"/>
  <defs>
    <linearGradient id="paint0_linear_69_29909" x1="-2.40019" y1="-2" x2="26.0115" y2="16.2586" gradientUnits="userSpaceOnUse">
      <stop stop-color="#40FFD9"/>
      <stop offset="0.404452" stop-color="#64BCFF"/>
      <stop offset="0.95" stop-color="#40FFD9"/>
    </linearGradient>
    <linearGradient id="paint1_linear_69_29909" x1="-2.40019" y1="-2" x2="26.0115" y2="16.2586" gradientUnits="userSpaceOnUse">
      <stop stop-color="#40FFD9"/>
      <stop offset="0.404452" stop-color="#64BCFF"/>
      <stop offset="0.95" stop-color="#40FFD9"/>
    </linearGradient>
  </defs>
</svg>