<svg width="1440" height="810" viewBox="0 0 1440 810" fill="none" xmlns="http://www.w3.org/2000/svg">
<rect width="1440" height="850" fill="black"/>
<rect width="1440" height="900" fill="url(#paint0_linear_39_17637)"/>
<rect width="1440" height="900" fill="url(#paint1_linear_39_17637)"/>
<g filter="url(#filter0_f_39_17637)">
<rect x="720" y="908.145" width="1221.55" height="1221.55" transform="rotate(-135 720 908.145)" fill="url(#paint2_linear_39_17637)" fill-opacity="0.33"/>
</g>
<g opacity="0.1" filter="url(#filter1_if_39_17637)">
<path d="M764.553 165.99L674.437 319.47C663.905 337.4 670.152 360.362 688.402 370.707C706.653 381.078 729.988 374.912 740.52 356.982L830.637 203.502C847.493 174.813 884.949 164.932 914.119 181.495C943.314 198.059 953.356 234.9 936.499 263.589L738.12 601.404C727.588 619.334 733.835 642.296 752.085 652.641C770.335 663.013 793.671 656.847 804.203 638.916L1002.58 301.101C1040.48 236.577 1017.92 153.787 952.271 116.533C886.653 79.2789 802.422 101.466 764.553 165.99Z" fill="url(#paint3_linear_39_17637)"/>
</g>
<g opacity="0.38" filter="url(#filter2_if_39_17637)">
<path d="M273.832 637.858C271.689 636.646 269.702 635.072 267.998 633.111C222.669 581.822 215.415 507.856 249.928 449.085L493.172 34.8526C499.497 24.0943 513.488 20.405 524.433 26.6226C535.378 32.8402 539.121 46.5912 532.822 57.3753L289.578 471.608C264.823 513.764 270.037 566.807 302.563 603.597C310.849 612.988 309.842 627.203 300.291 635.356C292.728 641.831 282.041 642.528 273.832 637.858ZM224.476 417.326L473.863 -7.3808C482.589 -22.2412 494.127 -34.857 508.144 -44.8671C514.959 -49.7432 516.482 -59.1083 511.526 -65.8161C506.57 -72.5239 497.018 -73.9945 490.204 -69.1442C472.702 -56.6574 458.298 -40.9198 447.43 -22.396L198.042 402.311C193.835 409.483 196.339 418.668 203.618 422.796C210.898 426.924 220.242 424.473 224.476 417.301V417.326ZM595.447 604.01L685.563 450.53C696.095 432.6 689.848 409.638 671.598 399.293C653.347 388.921 630.011 395.087 619.479 413.018L529.363 566.498C512.507 595.186 475.051 605.068 445.881 588.504C416.686 571.941 406.644 535.1 423.501 506.411L621.88 168.596C632.412 150.665 626.165 127.704 607.915 117.359C589.664 106.987 566.329 113.153 555.797 131.084L357.417 468.899C319.522 533.423 342.084 616.213 407.728 653.467C473.347 690.721 557.578 668.534 595.447 604.01ZM1059.71 134.644C1050.16 142.797 1049.15 157.012 1057.44 166.403C1089.96 203.193 1095.18 256.236 1070.42 298.392L827.178 712.625C820.853 723.383 824.596 737.16 835.567 743.377C846.512 749.595 860.503 745.906 866.828 735.147L1110.07 320.915C1144.58 262.118 1137.33 188.177 1092 136.889C1090.3 134.954 1088.31 133.38 1086.17 132.142C1077.93 127.472 1067.27 128.194 1059.71 134.644ZM1135.52 352.673L886.136 777.381C877.411 792.241 865.873 804.857 851.856 814.867C845.041 819.743 843.518 829.108 848.474 835.816C853.43 842.524 862.981 843.994 869.796 839.144C887.298 826.657 901.702 810.92 912.57 792.396L1161.96 367.689C1166.17 360.516 1163.66 351.332 1156.38 347.204C1149.08 343.05 1139.76 345.527 1135.52 352.699V352.673ZM764.553 165.99L674.437 319.47C663.905 337.4 670.152 360.362 688.402 370.707C706.653 381.078 729.988 374.912 740.521 356.982L830.637 203.502C847.493 174.813 884.949 164.932 914.119 181.495C943.314 198.059 953.356 234.9 936.499 263.589L738.12 601.404C727.588 619.335 733.835 642.296 752.085 652.641C770.336 663.013 793.671 656.847 804.203 638.916L1002.58 301.101C1040.48 236.577 1017.92 153.787 952.272 116.533C886.653 79.2789 802.422 101.466 764.553 165.99Z" fill="url(#paint4_linear_39_17637)"/>
</g>
<path d="M0 0H1440V810H0V0Z" fill="url(#paint5_linear_39_17637)"/>
<defs>
<filter id="filter0_f_39_17637" x="-243.763" y="-919.382" width="1927.53" height="1927.53" filterUnits="userSpaceOnUse" color-interpolation-filters="sRGB">
<feFlood flood-opacity="0" result="BackgroundImageFix"/>
<feBlend mode="normal" in="SourceGraphic" in2="BackgroundImageFix" result="shape"/>
<feGaussianBlur stdDeviation="50" result="effect1_foregroundBlur_39_17637"/>
</filter>
<filter id="filter1_if_39_17637" x="654.32" y="-79.5439" width="381.652" height="752.222" filterUnits="userSpaceOnUse" color-interpolation-filters="sRGB">
<feFlood flood-opacity="0" result="BackgroundImageFix"/>
<feBlend mode="normal" in="SourceGraphic" in2="BackgroundImageFix" result="shape"/>
<feColorMatrix in="SourceAlpha" type="matrix" values="0 0 0 0 0 0 0 0 0 0 0 0 0 0 0 0 0 0 127 0" result="hardAlpha"/>
<feMorphology radius="25" operator="erode" in="SourceAlpha" result="effect1_innerShadow_39_17637"/>
<feOffset dy="-178"/>
<feGaussianBlur stdDeviation="100"/>
<feComposite in2="hardAlpha" operator="arithmetic" k2="-1" k3="1"/>
<feColorMatrix type="matrix" values="0 0 0 0 0 0 0 0 0 0.833333 0 0 0 0 1 0 0 0 0.32 0"/>
<feBlend mode="normal" in2="shape" result="effect1_innerShadow_39_17637"/>
<feGaussianBlur stdDeviation="7.5" result="effect2_foregroundBlur_39_17637"/>
</filter>
<filter id="filter2_if_39_17637" x="156" y="-250" width="1048" height="1132" filterUnits="userSpaceOnUse" color-interpolation-filters="sRGB">
<feFlood flood-opacity="0" result="BackgroundImageFix"/>
<feBlend mode="normal" in="SourceGraphic" in2="BackgroundImageFix" result="shape"/>
<feColorMatrix in="SourceAlpha" type="matrix" values="0 0 0 0 0 0 0 0 0 0 0 0 0 0 0 0 0 0 127 0" result="hardAlpha"/>
<feMorphology radius="25" operator="erode" in="SourceAlpha" result="effect1_innerShadow_39_17637"/>
<feOffset dy="-178"/>
<feGaussianBlur stdDeviation="100"/>
<feComposite in2="hardAlpha" operator="arithmetic" k2="-1" k3="1"/>
<feColorMatrix type="matrix" values="0 0 0 0 0 0 0 0 0 0.833333 0 0 0 0 1 0 0 0 0.32 0"/>
<feBlend mode="normal" in2="shape" result="effect1_innerShadow_39_17637"/>
<feGaussianBlur stdDeviation="20" result="effect2_foregroundBlur_39_17637"/>
</filter>
<linearGradient id="paint0_linear_39_17637" x1="720" y1="475.5" x2="720" y2="900" gradientUnits="userSpaceOnUse">
<stop stop-opacity="0"/>
<stop offset="0.677973"/>
<stop offset="1"/>
</linearGradient>
<linearGradient id="paint1_linear_39_17637" x1="1377.5" y1="450" x2="266" y2="450" gradientUnits="userSpaceOnUse">
<stop/>
<stop offset="0.666419" stop-opacity="0.86"/>
<stop offset="0.942007" stop-opacity="0.92"/>
<stop offset="1"/>
</linearGradient>
<linearGradient id="paint2_linear_39_17637" x1="1903.89" y1="2091.78" x2="797.888" y2="985.779" gradientUnits="userSpaceOnUse">
<stop stop-color="#7BFEDF"/>
<stop offset="0.095" stop-color="#B5DCFB"/>
<stop offset="0.51" stop-color="#1D5DFF"/>
<stop offset="0.754342" stop-color="#2A20A5" stop-opacity="0"/>
</linearGradient>
<linearGradient id="paint3_linear_39_17637" x1="1134.16" y1="813.631" x2="307.975" y2="-61.3616" gradientUnits="userSpaceOnUse">
<stop stop-color="#7BFEDF"/>
<stop offset="0.095" stop-color="#B5DCFB"/>
<stop offset="0.51" stop-color="#217AFF"/>
<stop offset="0.754342" stop-color="#2A20A5" stop-opacity="0"/>
</linearGradient>
<linearGradient id="paint4_linear_39_17637" x1="1134.16" y1="813.632" x2="307.975" y2="-61.3616" gradientUnits="userSpaceOnUse">
<stop stop-color="#7BFEDF"/>
<stop offset="0.095" stop-color="#B5DCFB"/>
<stop offset="0.51" stop-color="#2A20A5"/>
<stop offset="0.790678" stop-color="#2A20A5" stop-opacity="0"/>
<stop offset="1" stop-color="#2A20A5" stop-opacity="0"/>
</linearGradient>
<linearGradient id="paint5_linear_39_17637" x1="720" y1="156.964" x2="720" y2="499.5" gradientUnits="userSpaceOnUse">
<stop stop-opacity="0"/>
<stop offset="1"/>
</linearGradient>
</defs>
</svg>
