<svg width="106" height="32" viewBox="0 0 106 32" fill="none" xmlns="http://www.w3.org/2000/svg">
<path d="M3.10811 24.3639C3.03729 24.3238 2.97158 24.2718 2.91526 24.2069C1.41677 22.5104 1.17698 20.0636 2.31791 18.1196L10.359 4.41735C10.5681 4.06148 11.0306 3.93944 11.3924 4.14511C11.7543 4.35078 11.878 4.80565 11.6698 5.16237L3.62866 18.8646C2.81029 20.2591 2.98267 22.0137 4.05789 23.2306C4.33182 23.5413 4.29854 24.0115 3.9828 24.2812C3.73277 24.4954 3.37948 24.5184 3.10811 24.3639ZM1.47651 17.0691L9.72073 3.02033C10.0092 2.52877 10.3906 2.11145 10.854 1.78033C11.0793 1.61904 11.1296 1.30925 10.9658 1.08737C10.8019 0.865483 10.4862 0.816839 10.2609 0.977279C9.68232 1.39033 9.20615 1.9109 8.84689 2.52365L0.602677 16.5724C0.463581 16.8096 0.546356 17.1134 0.787 17.25C1.02765 17.3865 1.33656 17.3054 1.47651 17.0682V17.0691ZM13.74 23.2443L16.7191 18.1674C17.0672 17.5743 16.8607 16.8147 16.2574 16.4725C15.6541 16.1295 14.8826 16.3334 14.5345 16.9265L11.5554 22.0034C10.9982 22.9524 9.75998 23.2793 8.79569 22.7314C7.83055 22.1835 7.4986 20.9648 8.05584 20.0159L14.6138 8.84139C14.962 8.24828 14.7555 7.48875 14.1522 7.14653C13.5489 6.80346 12.7774 7.00743 12.4293 7.60054L5.87126 18.775C4.61854 20.9094 5.36437 23.6479 7.53444 24.8803C9.70366 26.1126 12.4881 25.3786 13.74 23.2443ZM29.0875 7.71831C28.7718 7.98799 28.7385 8.45821 29.0124 8.76885C30.0876 9.98581 30.26 11.7404 29.4417 13.1349L21.4005 26.8371C21.1915 27.193 21.3152 27.6487 21.6779 27.8544C22.0397 28.06 22.5022 27.938 22.7113 27.5821L30.7524 13.8799C31.8933 11.935 31.6535 9.48913 30.1551 7.79256C30.0987 7.72855 30.033 7.6765 29.9622 7.63553C29.69 7.48107 29.3375 7.50496 29.0875 7.71831ZM31.5938 14.9304L23.3496 28.9792C23.0612 29.4707 22.6797 29.888 22.2163 30.2192C21.9911 30.3804 21.9407 30.6902 22.1045 30.9121C22.2684 31.134 22.5841 31.1826 22.8094 31.0222C23.388 30.6092 23.8642 30.0886 24.2234 29.4758L32.4676 15.4271C32.6067 15.1899 32.524 14.886 32.2833 14.7495C32.0418 14.6121 31.7338 14.694 31.5938 14.9313V14.9304ZM19.3303 8.7552L16.3513 13.8321C16.0031 14.4252 16.2096 15.1847 16.8129 15.527C17.4162 15.87 18.1877 15.6661 18.5358 15.0729L21.5149 9.99605C22.0721 9.04706 23.3103 8.72021 24.2746 9.26809C25.2398 9.81598 25.5717 11.0346 25.0145 11.9836L18.4565 23.1581C18.1083 23.7512 18.3148 24.5107 18.9181 24.853C19.5215 25.196 20.2929 24.9921 20.6411 24.3989L27.199 13.2245C28.4518 11.0901 27.7059 8.35154 25.5359 7.11922C23.3667 5.88691 20.5822 6.62084 19.3303 8.7552Z" fill="url(#paint0_linear_6273_20683)"/>
<path d="M92.4987 23.9789C89.3974 23.9789 86.874 21.3278 86.874 18.0695C86.874 14.8112 89.3974 12.1602 92.4987 12.1602C95.1379 12.1602 97.3923 14.0449 97.9807 16.7428C98.0755 17.1722 98.1234 17.6179 98.1234 18.0683C98.1234 18.0824 98.1234 18.0953 98.1234 18.1093C98.1211 18.4228 97.8626 18.6744 97.5479 18.6744H89.3553C89.236 18.6744 89.1237 18.7294 89.0523 18.823C88.9798 18.9166 88.9564 19.0382 88.988 19.1517C89.4536 20.8107 90.8434 21.9701 92.5327 21.9701C93.4545 21.9701 94.3448 21.6285 95.0373 21.0072C95.1567 20.9019 95.2701 20.7861 95.3766 20.6644C95.462 20.5662 95.5883 20.5112 95.7182 20.5112H97.0823C97.4496 20.5112 97.6695 20.9207 97.466 21.2272C96.8003 22.2251 95.7627 23.0488 94.6302 23.5366C93.9552 23.8291 93.2381 23.9765 92.4987 23.9765V23.9789ZM92.5327 14.0695C91.0387 14.0695 89.6899 15.0066 89.0968 16.4573C89.0488 16.5755 89.0605 16.71 89.1307 16.8165C89.1997 16.923 89.3167 16.9873 89.4419 16.9873H95.6246C95.7498 16.9873 95.8668 16.923 95.9358 16.8165C96.0048 16.71 96.0177 16.5743 95.9697 16.4573C95.3754 15.0066 94.0266 14.0695 92.5327 14.0695Z" fill="#FFFFFF"/>
<path d="M66.0159 23.2742V17.1975C66.0159 15.8018 64.9327 14.612 63.5382 14.5593C62.0723 14.5043 60.8615 15.6801 60.8615 17.1344V23.2754C60.8615 23.5292 60.6556 23.7351 60.4018 23.7351H58.9324C58.6786 23.7351 58.4727 23.5292 58.4727 23.2754V17.1344C58.4727 16.423 58.6201 15.7351 58.9114 15.0893C59.7139 13.3145 61.4909 12.168 63.4376 12.168C65.3842 12.168 67.1612 13.3145 67.9638 15.0893C68.2551 15.7351 68.4025 16.423 68.4025 17.1344V23.2754C68.4025 23.5292 68.1966 23.7351 67.9427 23.7351H66.4734C66.2195 23.7351 66.0136 23.5292 66.0136 23.2754L66.0159 23.2742Z" fill="#FFFFFF"/>
<path d="M80.233 24.0192C78.1506 24.0192 76.7737 22.5322 76.1385 19.6015C75.8284 18.1707 75.1242 14.7392 74.7732 13.0288C74.7147 12.7433 74.9323 12.4777 75.2236 12.4777H76.6357C76.8591 12.4777 77.051 12.638 77.0884 12.8591C77.3598 14.4362 78.0208 18.2642 78.2898 19.7489C78.5156 20.9972 79.1696 21.6302 80.2318 21.6302C81.5503 21.6302 81.8954 20.624 82.0486 19.7466C82.3189 18.2069 83.057 14.4023 83.3612 12.8486C83.4033 12.6322 83.5928 12.4766 83.8128 12.4766H85.2377C85.529 12.4766 85.7466 12.7445 85.6881 13.0299L84.3252 19.6038C84.1438 20.6486 83.3179 24.018 80.2318 24.018L80.233 24.0192Z" fill="#FFFFFF"/>
<path d="M50.4383 23.9864C50.3763 23.9864 50.3143 23.9864 50.2535 23.9829C49.6416 23.9641 49.0438 23.853 48.4729 23.6506C48.1302 23.5289 47.7991 23.3768 47.4902 23.1967C46.5906 22.6784 45.8431 21.9308 45.326 21.0323C45.1458 20.7199 44.9926 20.3888 44.8721 20.0472C44.6486 19.4178 44.5352 18.7556 44.5352 18.077V8.44025C44.5352 8.18638 44.7411 7.98047 44.9949 7.98047H46.4643C46.7181 7.98047 46.924 8.18638 46.924 8.44025V18.0021C46.924 19.9173 48.4226 21.5389 50.3377 21.5962C52.3276 21.6547 53.9643 20.0542 53.9643 18.077V8.44025C53.9643 8.18638 54.1702 7.98047 54.424 7.98047H55.8934C56.1472 7.98047 56.3531 8.18638 56.3531 8.44025V18.077C56.3531 18.7509 56.2397 19.4143 56.0162 20.0472C55.8957 20.3888 55.7425 20.7199 55.5623 21.0299C55.0441 21.9285 54.2965 22.676 53.3992 23.1932C53.0892 23.3745 52.7581 23.5278 52.4142 23.6494C51.8445 23.8518 51.2467 23.963 50.6383 23.9817C50.5728 23.984 50.5097 23.9852 50.4453 23.9852H50.4406L50.4383 23.9864Z" fill="#FFFFFF"/>
<path d="M100.387 23.7355C100.133 23.7355 99.9268 23.5296 99.9268 23.2757V16.4959C99.9268 16.0046 100.007 15.5226 100.168 15.0639C100.17 15.0593 100.171 15.0546 100.172 15.0499C100.605 13.8261 101.594 12.8375 102.817 12.4047C102.82 12.4047 102.822 12.4035 102.825 12.4023C103.267 12.2467 103.73 12.166 104.2 12.1602H105.005C105.259 12.1602 105.465 12.3661 105.465 12.6199V14.0906C105.465 14.3433 105.26 14.5492 105.007 14.5503L104.272 14.5539C104.246 14.5539 104.22 14.5562 104.196 14.562C103.999 14.5691 103.807 14.6065 103.624 14.672C103.074 14.8651 102.629 15.3096 102.435 15.8607C102.369 16.0455 102.333 16.2362 102.325 16.4293C102.319 16.455 102.316 16.4831 102.316 16.5112V23.2781C102.316 23.532 102.11 23.7379 101.856 23.7379H100.387V23.7355Z" fill="#FFFFFF"/>
<path d="M70.542 15.0765V23.2777C70.542 23.5316 70.7479 23.7375 71.0017 23.7375H72.4688C72.7226 23.7375 72.9285 23.5316 72.9285 23.2777V15.0741C72.9285 14.9595 72.8186 14.8776 72.7086 14.9092C72.3986 14.9993 72.0698 15.0472 71.7306 15.0472C71.3913 15.0472 71.0696 14.9993 70.7619 14.9115C70.652 14.8799 70.542 14.9618 70.542 15.0765Z" fill="#FFFFFF"/>
<path d="M70.542 12.9391V14.267C70.542 14.4787 70.6871 14.6636 70.893 14.7151C71.162 14.7806 71.4416 14.8168 71.7306 14.8168C72.0195 14.8168 72.3073 14.7806 72.5787 14.7127C72.7846 14.6612 72.9285 14.4776 72.9285 14.2658V12.9403C72.9285 12.6864 72.7226 12.4805 72.4688 12.4805H71.0017C70.7479 12.4805 70.542 12.6864 70.542 12.9391Z" fill="#FFFFFF"/>
<defs>
<linearGradient id="paint0_linear_6273_20683" x1="0.535156" y1="15.9997" x2="33.9469" y2="15.9997" gradientUnits="userSpaceOnUse">
<stop stop-color="#5357ED"/>
<stop offset="1" stop-color="#40B9FF"/>
</linearGradient>
</defs>
</svg>
